<?xml version="1.0" encoding="UTF-8"?>
<svg version="1.1" xmlns="http://www.w3.org/2000/svg" width="500" height="500">
<path d="M0 0 C2.64179946 1.83227423 4.78403111 4.0598287 7 6.37890625 C7.639375 7.02439926 8.27875 7.66989227 8.9375 8.33494568 C10.97282247 10.39711654 12.98611486 12.47941167 15 14.5625 C16.35282548 15.93686832 17.70698041 17.30992938 19.0625 18.68164062 C24.66545682 24.37825649 30.13918917 30.12073256 35.37475586 36.15855408 C37.50137842 38.56807542 39.74257533 40.83832484 42.03125 43.09375 C42.92457031 43.97933594 43.81789063 44.86492187 44.73828125 45.77734375 C46.10533203 47.12505859 46.10533203 47.12505859 47.5 48.5 C49.32539339 50.29957453 51.14835671 52.10161769 52.96875 53.90625 C54.16661133 55.08670898 54.16661133 55.08670898 55.38867188 56.29101562 C57.45196361 58.43146861 59.40436777 60.59707693 61.34521484 62.84521484 C64.8959181 66.93622427 68.65420615 70.76604457 72.5078125 74.5703125 C73.19632294 75.25503632 73.88483337 75.93976013 74.59420776 76.64523315 C76.76869554 78.80763239 78.94641667 80.96672755 81.125 83.125 C84.00554906 85.97882428 86.88267795 88.83603448 89.7578125 91.6953125 C90.41000763 92.33920929 91.06220276 92.98310608 91.73416138 93.64651489 C95.38666048 97.2794816 98.74236935 101.01028514 102 105 C102.845625 105.845625 103.69125 106.69125 104.5625 107.5625 C110.94117647 113.94117647 110.94117647 113.94117647 111.1875 118.375 C109.57285905 123.30390396 106.86082541 125.66734146 103 129 C102.34128906 129.5775 101.68257813 130.155 101.00390625 130.75 C99.66279017 131.92118909 98.31769269 133.08783399 96.96875 134.25 C95.06976929 135.93798286 93.27994012 137.68769734 91.5 139.5 C89.12957643 141.91332717 86.69263692 144.17271853 84.125 146.375 C81.1153247 148.96634205 78.28911384 151.67254783 75.5 154.5 C72.8122154 157.2244154 70.10183137 159.83260312 67.1875 162.3125 C63.5493779 165.46455721 60.02866321 168.72340382 56.5625 172.0625 C55.76332153 172.80463745 55.76332153 172.80463745 54.94799805 173.56176758 C51.5478431 176.88698798 50.21406126 179.23713707 50 184 C50.30027117 185.67293936 50.63557767 187.33985384 51 189 C51.43940681 195.37139881 51.43940681 195.37139881 49.88183594 197.59960938 C47.25459942 199.55469872 44.83400593 200.03343844 41.640625 200.78125 C40.95357483 200.94427612 40.26652466 201.10730225 39.55865479 201.27526855 C37.042356 201.86531203 34.52183551 202.4340877 32 203 C30.98639404 203.22880859 29.97278809 203.45761719 28.9284668 203.69335938 C20.89140031 205.50272333 12.84678176 207.27746869 4.80115509 209.04828262 C-1.50607524 210.4372978 -7.811964 211.83237446 -14.1171875 213.23046875 C-14.82300083 213.38695074 -15.52881416 213.54343273 -16.25601578 213.7046566 C-26.31034573 215.93585969 -36.35149478 218.21797613 -46.3828125 220.55078125 C-48.17893982 220.96824112 -48.17893982 220.96824112 -50.01135254 221.39413452 C-55.64790456 222.70625134 -61.28249719 224.02624777 -66.91503906 225.35546875 C-68.93031865 225.82690797 -70.94561703 226.29826683 -72.9609375 226.76953125 C-73.85193146 226.98241287 -74.74292542 227.19529449 -75.66091919 227.41462708 C-91.35621501 231.07025958 -91.35621501 231.07025958 -96.82421875 228.12890625 C-98.02594727 227.51499023 -98.02594727 227.51499023 -99.25195312 226.88867188 C-100.05568359 226.45103516 -100.85941406 226.01339844 -101.6875 225.5625 C-108.9147537 221.41109524 -108.9147537 221.41109524 -117 221 C-118.93580283 222.38389309 -120.30815815 223.92595979 -121.8984375 225.6875 C-125.15882397 227.7237265 -128.33103387 227.69476726 -132 227 C-134.46750954 225.52910015 -136.2663657 224.24283939 -138.375 222.375 C-139.59272599 221.35944796 -140.81153039 220.345188 -142.03125 219.33203125 C-142.67191406 218.7901416 -143.31257813 218.24825195 -143.97265625 217.68994141 C-147.53390765 214.72137419 -151.20851787 211.89921997 -154.875 209.0625 C-155.63731934 208.46937012 -156.39963867 207.87624023 -157.18505859 207.26513672 C-162.7298511 202.95721433 -168.33303924 198.73322912 -173.96264648 194.53710938 C-179.77454829 190.1944965 -185.50052841 185.74616275 -191.21875 181.28125 C-196.28965577 177.32368203 -201.38497257 173.40033476 -206.5 169.5 C-208.59729826 167.89605328 -210.69416196 166.2915396 -212.79101562 164.68701172 C-214.32967806 163.511928 -215.87018553 162.33925791 -217.41210938 161.16845703 C-219.8629914 159.30615365 -222.30694048 157.43504847 -224.75 155.5625 C-225.50087891 154.9953125 -226.25175781 154.428125 -227.02539062 153.84375 C-227.73373047 153.29847656 -228.44207031 152.75320313 -229.171875 152.19140625 C-229.7915918 151.71904541 -230.41130859 151.24668457 -231.04980469 150.76000977 C-236.05370122 146.24409964 -238.61163602 142.30506669 -240.67578125 135.87890625 C-240.89066696 135.21592026 -241.10555267 134.55293427 -241.32695007 133.86985779 C-241.77456374 132.47779721 -242.21539231 131.08353798 -242.6496582 129.68725586 C-243.31145818 127.56583958 -243.9986611 125.45392724 -244.68945312 123.34179688 C-248.58390811 111.13217119 -248.58390811 111.13217119 -248 105 C-246.74560547 102.83007812 -246.74560547 102.83007812 -244.9921875 101.03125 C-244.34991211 100.3609375 -243.70763672 99.690625 -243.04589844 99 C-242.37075195 98.34 -241.69560547 97.68 -241 97 C-240.37383789 96.38125 -239.74767578 95.7625 -239.10253906 95.125 C-237.13433762 93.2223045 -235.13560223 91.35779362 -233.125 89.5 C-231.62625537 88.10161257 -230.12755888 86.70317353 -228.62890625 85.3046875 C-227.48446045 84.24072754 -227.48446045 84.24072754 -226.31689453 83.15527344 C-222.55524377 79.65602655 -218.80703724 76.14254482 -215.0625 72.625 C-214.35053467 71.95670166 -213.63856934 71.28840332 -212.9050293 70.59985352 C-208.21820746 66.18637016 -203.65042167 61.68037662 -199.12890625 57.09765625 C-196.49916373 54.50651545 -193.73394345 52.10975885 -190.9296875 49.7109375 C-188.86691479 47.88200137 -186.9340928 45.96419542 -185 44 C-182.46027814 41.4207494 -179.87548686 38.97782611 -177.125 36.625 C-173.93317491 33.88378551 -170.95697023 30.99314112 -168 28 C-164.46415484 24.42096894 -160.8398486 21.06145613 -157.015625 17.796875 C-153.85832401 14.98222683 -150.92829881 11.94927718 -147.98046875 8.91796875 C-145.20187129 6.22705879 -143.5748329 5.06086466 -139.6796875 4.6484375 C-135.42536385 5.05490154 -133.56072237 6.1389895 -130.125 8.625 C-129.09246094 9.35074219 -128.05992187 10.07648438 -126.99609375 10.82421875 C-126.00738281 11.54222656 -125.01867187 12.26023438 -124 13 C-122.40387341 14.15700676 -120.80056063 15.30422151 -119.1875 16.4375 C-118.54167969 16.91058594 -117.89585937 17.38367188 -117.23046875 17.87109375 C-114.00405101 19.50407926 -111.63271641 19.9281773 -108 20 C-105.04454026 18.91974864 -102.44267952 17.36469027 -99.75 15.75 C-85.03672267 7.49169218 -69.63360749 4.89664316 -53 9 C-46.58492406 11.0815252 -40.7754907 13.53274113 -35 17 C-31.73101627 17.74295085 -29.87798035 17.53606628 -27.00390625 15.78125 C-21.44870875 11.58266936 -16.37719975 6.78017755 -11.28515625 2.0390625 C-7.29717397 -1.51944477 -5.18793317 -1.30794652 0 0 Z " fill="#0FB0E9" transform="translate(319,127)"/>
<path d="M0 0 C3.24197674 1.40996288 5.25798846 3.07478512 7.64453125 5.66796875 C8.32193359 6.39693359 8.99933594 7.12589844 9.69726562 7.87695312 C10.39529297 8.63943359 11.09332031 9.40191406 11.8125 10.1875 C13.19292729 11.68199077 14.57442853 13.17549031 15.95703125 14.66796875 C16.6312915 15.39669189 17.30555176 16.12541504 18.00024414 16.8762207 C20.44952768 19.47740707 22.97620817 21.99218419 25.51489258 24.50561523 C27.24477291 26.24630199 28.85660447 28.06095648 30.4375 29.9375 C32.85617779 32.74576347 35.35899683 35.39970593 38 38 C40.5792506 40.53972186 43.02217389 43.12451314 45.375 45.875 C48.11621449 49.06682509 51.00685888 52.04302977 54 55 C57.60719127 58.56359983 60.99477889 62.21924856 64.2890625 66.0703125 C66.67310624 68.75916548 69.22816028 71.25477545 71.8125 73.75 C73.69828055 75.68966 75.47380148 77.6688666 77.24609375 79.7109375 C81.07651479 84.1203638 85.05091856 88.38058653 89.0625 92.625 C90.0844043 93.71167969 90.0844043 93.71167969 91.12695312 94.8203125 C92.13338867 95.88765625 92.13338867 95.88765625 93.16015625 96.9765625 C93.80484863 97.66266602 94.44954102 98.34876953 95.11376953 99.05566406 C96.87222864 100.86829263 98.700309 102.56478087 100.55859375 104.2734375 C101.76708984 105.62308594 101.76708984 105.62308594 103 107 C102.5646971 111.35566723 99.75302231 113.45005751 96.625 116.1875 C96.08625244 116.67017334 95.54750488 117.15284668 94.99243164 117.65014648 C90.67933027 121.48352342 86.2200886 125.12666855 81.7265625 128.74609375 C77.87844889 131.92712749 74.21568518 135.29559614 70.5390625 138.671875 C67.07893218 141.84454834 63.55049871 144.92929842 60 148 C59.4534375 148.47824219 58.906875 148.95648438 58.34375 149.44921875 C56.4621702 151.09560107 54.57519827 152.73563871 52.6875 154.375 C52.07608154 154.9117334 51.46466309 155.4484668 50.8347168 156.00146484 C48.24535614 158.23999963 46.28009772 159.90663409 43 161 C43.2165625 161.80824219 43.433125 162.61648438 43.65625 163.44921875 C44.07390625 165.05216797 44.07390625 165.05216797 44.5 166.6875 C44.91765625 168.27111328 44.91765625 168.27111328 45.34375 169.88671875 C45.94233449 172.72643206 46.05127345 175.11800473 46 178 C44.78437378 178.2316687 44.78437378 178.2316687 43.54418945 178.46801758 C25.18760317 181.30253042 25.18760317 181.30253042 9.9375 190.75 C3.14389101 197.75470984 -4.35527284 198.10414801 -13.67431641 198.81347656 C-17.13297372 199.09086625 -20.56014407 199.54874157 -24 200 C-24.31525635 199.48953125 -24.6305127 198.9790625 -24.95532227 198.453125 C-31.50688939 187.84840002 -38.07863783 177.25662812 -44.6875 166.6875 C-45.3263916 165.66575684 -45.9652832 164.64401367 -46.62353516 163.59130859 C-49.28315063 159.33935559 -51.94399653 155.0881867 -54.609375 150.83984375 C-59.74376781 142.65030138 -64.81644918 134.42412365 -69.875 126.1875 C-74.75411827 118.24697419 -79.65122688 110.31915234 -84.625 102.4375 C-85.31505127 101.34248169 -85.31505127 101.34248169 -86.01904297 100.2253418 C-89.2667944 95.09665554 -92.6144316 90.03862625 -96 85 C-94.44031342 81.46718242 -92.65745763 79.85480709 -89.50463867 77.60131836 C-84.22341574 73.94426483 -84.22341574 73.94426483 -81.3984375 68.44140625 C-81.69793579 65.8471035 -82.2594757 63.50232113 -83 61 C-85.53783735 45.92052456 -84.84510028 29.53530084 -80 15 C-91.7741611 22.79098745 -103.0999695 32.14995424 -111 44 C-113.625 44.1875 -113.625 44.1875 -116 44 C-115.54596111 39.18020256 -113.52953829 36.95418825 -110.25 33.5 C-109.38890625 32.5821875 -108.5278125 31.664375 -107.640625 30.71875 C-94.45743694 17.14552679 -81.326555 4.50160611 -61.375 3.625 C-47.58229354 4.22036862 -36.13449586 12.33841351 -26 21 C-22.32043709 19.43767979 -19.83484207 17.16415918 -16.9375 14.4375 C-11.47355541 9.37856478 -5.8142019 4.65585994 0 0 Z " fill="#0C87ED" transform="translate(311,137)"/>
<path d="M0 0 C2.64179946 1.83227423 4.78403111 4.0598287 7 6.37890625 C7.639375 7.02439926 8.27875 7.66989227 8.9375 8.33494568 C10.97282247 10.39711654 12.98611486 12.47941167 15 14.5625 C16.35282548 15.93686832 17.70698041 17.30992938 19.0625 18.68164062 C24.66545682 24.37825649 30.13918917 30.12073256 35.37475586 36.15855408 C37.50137842 38.56807542 39.74257533 40.83832484 42.03125 43.09375 C42.92457031 43.97933594 43.81789063 44.86492187 44.73828125 45.77734375 C46.10533203 47.12505859 46.10533203 47.12505859 47.5 48.5 C49.32539339 50.29957453 51.14835671 52.10161769 52.96875 53.90625 C54.16661133 55.08670898 54.16661133 55.08670898 55.38867188 56.29101562 C57.45196361 58.43146861 59.40436777 60.59707693 61.34521484 62.84521484 C64.8959181 66.93622427 68.65420615 70.76604457 72.5078125 74.5703125 C73.19632294 75.25503632 73.88483337 75.93976013 74.59420776 76.64523315 C76.76869554 78.80763239 78.94641667 80.96672755 81.125 83.125 C84.00554906 85.97882428 86.88267795 88.83603448 89.7578125 91.6953125 C90.41000763 92.33920929 91.06220276 92.98310608 91.73416138 93.64651489 C95.38666048 97.2794816 98.74236935 101.01028514 102 105 C102.845625 105.845625 103.69125 106.69125 104.5625 107.5625 C110.94117647 113.94117647 110.94117647 113.94117647 111.1875 118.375 C109.57285905 123.30390396 106.86082541 125.66734146 103 129 C102.34128906 129.5775 101.68257813 130.155 101.00390625 130.75 C99.66279017 131.92118909 98.31769269 133.08783399 96.96875 134.25 C95.06976929 135.93798286 93.27994012 137.68769734 91.5 139.5 C89.12957643 141.91332717 86.69263692 144.17271853 84.125 146.375 C81.1153247 148.96634205 78.28911384 151.67254783 75.5 154.5 C72.8122154 157.2244154 70.10183137 159.83260312 67.1875 162.3125 C63.5493779 165.46455721 60.02866321 168.72340382 56.5625 172.0625 C55.76332153 172.80463745 55.76332153 172.80463745 54.94799805 173.56176758 C51.5478431 176.88698798 50.21406126 179.23713707 50 184 C50.30027117 185.67293936 50.63557767 187.33985384 51 189 C51.43940681 195.37139881 51.43940681 195.37139881 49.88183594 197.59960938 C47.25459942 199.55469872 44.83400593 200.03343844 41.640625 200.78125 C40.95357483 200.94427612 40.26652466 201.10730225 39.55865479 201.27526855 C37.042356 201.86531203 34.52183551 202.4340877 32 203 C30.98639404 203.22880859 29.97278809 203.45761719 28.9284668 203.69335938 C20.89140031 205.50272333 12.84678176 207.27746869 4.80115509 209.04828262 C-1.50607524 210.4372978 -7.811964 211.83237446 -14.1171875 213.23046875 C-14.82300083 213.38695074 -15.52881416 213.54343273 -16.25601578 213.7046566 C-26.31034573 215.93585969 -36.35149478 218.21797613 -46.3828125 220.55078125 C-48.17893982 220.96824112 -48.17893982 220.96824112 -50.01135254 221.39413452 C-55.64790456 222.70625134 -61.28249719 224.02624777 -66.91503906 225.35546875 C-68.93031865 225.82690797 -70.94561703 226.29826683 -72.9609375 226.76953125 C-73.85193146 226.98241287 -74.74292542 227.19529449 -75.66091919 227.41462708 C-91.35621501 231.07025958 -91.35621501 231.07025958 -96.82421875 228.12890625 C-98.02594727 227.51499023 -98.02594727 227.51499023 -99.25195312 226.88867188 C-100.05568359 226.45103516 -100.85941406 226.01339844 -101.6875 225.5625 C-108.9147537 221.41109524 -108.9147537 221.41109524 -117 221 C-118.93580283 222.38389309 -120.30815815 223.92595979 -121.8984375 225.6875 C-125.15882397 227.7237265 -128.33103387 227.69476726 -132 227 C-134.46750954 225.52910015 -136.2663657 224.24283939 -138.375 222.375 C-139.59272599 221.35944796 -140.81153039 220.345188 -142.03125 219.33203125 C-142.67191406 218.7901416 -143.31257813 218.24825195 -143.97265625 217.68994141 C-147.53390765 214.72137419 -151.20851787 211.89921997 -154.875 209.0625 C-155.63731934 208.46937012 -156.39963867 207.87624023 -157.18505859 207.26513672 C-162.7298511 202.95721433 -168.33303924 198.73322912 -173.96264648 194.53710938 C-179.77454829 190.1944965 -185.50052841 185.74616275 -191.21875 181.28125 C-196.28965577 177.32368203 -201.38497257 173.40033476 -206.5 169.5 C-208.59729826 167.89605328 -210.69416196 166.2915396 -212.79101562 164.68701172 C-214.32967806 163.511928 -215.87018553 162.33925791 -217.41210938 161.16845703 C-219.8629914 159.30615365 -222.30694048 157.43504847 -224.75 155.5625 C-225.50087891 154.9953125 -226.25175781 154.428125 -227.02539062 153.84375 C-227.73373047 153.29847656 -228.44207031 152.75320313 -229.171875 152.19140625 C-229.7915918 151.71904541 -230.41130859 151.24668457 -231.04980469 150.76000977 C-236.05370122 146.24409964 -238.61163602 142.30506669 -240.67578125 135.87890625 C-240.89066696 135.21592026 -241.10555267 134.55293427 -241.32695007 133.86985779 C-241.77456374 132.47779721 -242.21539231 131.08353798 -242.6496582 129.68725586 C-243.31145818 127.56583958 -243.9986611 125.45392724 -244.68945312 123.34179688 C-248.58390811 111.13217119 -248.58390811 111.13217119 -248 105 C-246.74560547 102.83007812 -246.74560547 102.83007812 -244.9921875 101.03125 C-244.34991211 100.3609375 -243.70763672 99.690625 -243.04589844 99 C-242.37075195 98.34 -241.69560547 97.68 -241 97 C-240.37383789 96.38125 -239.74767578 95.7625 -239.10253906 95.125 C-237.13433762 93.2223045 -235.13560223 91.35779362 -233.125 89.5 C-231.62625537 88.10161257 -230.12755888 86.70317353 -228.62890625 85.3046875 C-227.48446045 84.24072754 -227.48446045 84.24072754 -226.31689453 83.15527344 C-222.55524377 79.65602655 -218.80703724 76.14254482 -215.0625 72.625 C-214.35053467 71.95670166 -213.63856934 71.28840332 -212.9050293 70.59985352 C-208.21820746 66.18637016 -203.65042167 61.68037662 -199.12890625 57.09765625 C-196.49916373 54.50651545 -193.73394345 52.10975885 -190.9296875 49.7109375 C-188.86691479 47.88200137 -186.9340928 45.96419542 -185 44 C-182.46027814 41.4207494 -179.87548686 38.97782611 -177.125 36.625 C-173.93317491 33.88378551 -170.95697023 30.99314112 -168 28 C-164.46415484 24.42096894 -160.8398486 21.06145613 -157.015625 17.796875 C-153.85832401 14.98222683 -150.92829881 11.94927718 -147.98046875 8.91796875 C-145.20187129 6.22705879 -143.5748329 5.06086466 -139.6796875 4.6484375 C-135.42536385 5.05490154 -133.56072237 6.1389895 -130.125 8.625 C-129.09246094 9.35074219 -128.05992187 10.07648438 -126.99609375 10.82421875 C-126.00738281 11.54222656 -125.01867187 12.26023438 -124 13 C-122.40387341 14.15700676 -120.80056063 15.30422151 -119.1875 16.4375 C-118.54167969 16.91058594 -117.89585937 17.38367188 -117.23046875 17.87109375 C-114.00405101 19.50407926 -111.63271641 19.9281773 -108 20 C-105.04454026 18.91974864 -102.44267952 17.36469027 -99.75 15.75 C-85.03672267 7.49169218 -69.63360749 4.89664316 -53 9 C-46.58492406 11.0815252 -40.7754907 13.53274113 -35 17 C-31.73101627 17.74295085 -29.87798035 17.53606628 -27.00390625 15.78125 C-21.44870875 11.58266936 -16.37719975 6.78017755 -11.28515625 2.0390625 C-7.29717397 -1.51944477 -5.18793317 -1.30794652 0 0 Z M-8 10 C-20.06458458 20.4263307 -20.06458458 20.4263307 -32 31 C-35.6928957 29.3359723 -38.78697832 27.05558676 -42.0625 24.6875 C-52.92620518 17.0052204 -63.36138354 12.51208161 -76.79296875 14.390625 C-88.8862746 16.88277257 -98.28980392 23.67152767 -106.78125 32.41015625 C-109 34 -109 34 -111.40234375 34.02734375 C-114.73988817 32.70738257 -117.30972106 30.74585305 -120.0625 28.5 C-121.20250861 27.59557668 -122.34314963 26.69195 -123.484375 25.7890625 C-124.06251953 25.32790039 -124.64066406 24.86673828 -125.23632812 24.39160156 C-128.05581758 22.16692134 -130.93267261 20.02063442 -133.8125 17.875 C-134.80894531 17.12992188 -135.80539063 16.38484375 -136.83203125 15.6171875 C-137.54746094 15.08351562 -138.26289063 14.54984375 -139 14 C-143.18167326 15.63256246 -145.94467643 18.7086575 -149.015625 21.85546875 C-149.59028503 22.43533035 -150.16494507 23.01519196 -150.75701904 23.61262512 C-152.59284019 25.4662186 -154.42185415 27.3263386 -156.25 29.1875 C-158.64761853 31.62189182 -161.04842286 34.0530737 -163.453125 36.48046875 C-164.03719116 37.07012421 -164.62125732 37.65977966 -165.22302246 38.26730347 C-168.04133651 41.09553407 -170.87182487 43.84477937 -173.921875 46.42578125 C-180.68497277 52.16473742 -186.76506681 58.70172206 -193 65 C-208.09182981 80.24515754 -208.09182981 80.24515754 -214.01904297 85.27246094 C-218.18282512 88.90358277 -222.1205736 92.77960207 -226.05786133 96.65283203 C-227.07099522 97.64410209 -228.0903577 98.62904145 -229.11547852 99.60791016 C-230.61372325 101.03952935 -232.09156694 102.48964047 -233.56640625 103.9453125 C-234.44240479 104.79625488 -235.31840332 105.64719727 -236.22094727 106.52392578 C-238.27173594 108.83382818 -238.27173594 108.83382818 -237.8684082 111.51806641 C-237.5818335 112.33710449 -237.29525879 113.15614258 -237 114 C-236.66669678 115.16450684 -236.66669678 115.16450684 -236.32666016 116.35253906 C-231.3527842 131.88338423 -231.3527842 131.88338423 -219.79345703 142.8359375 C-216.79738929 144.78056736 -213.9695838 146.95124343 -211.10791016 149.08666992 C-208.63067722 150.93326804 -206.13947086 152.75945005 -203.64453125 154.58203125 C-198.77579644 158.15151672 -193.99452781 161.82148161 -189.22265625 165.51953125 C-185.59483083 168.32362026 -181.92281952 171.0677657 -178.25 173.8125 C-172.72287785 177.94442627 -167.22484924 182.11157157 -161.75 186.3125 C-154.55352916 191.83398806 -147.30769048 197.28734918 -140.03808594 202.7121582 C-134.64178482 206.74500276 -129.30305523 210.84530649 -124 215 C-121.66475218 212.74259377 -119.81294927 210.7194239 -118 208 C-117.45214844 208.23074219 -116.90429688 208.46148437 -116.33984375 208.69921875 C-113.57357253 209.83721325 -110.79079628 210.92345205 -108 212 C-106.80632812 212.46664062 -105.61265625 212.93328125 -104.3828125 213.4140625 C-103.11018969 213.88242795 -101.83675247 214.3485866 -100.5625 214.8125 C-98.80099609 215.47185547 -98.80099609 215.47185547 -97.00390625 216.14453125 C-88.2936633 218.54573336 -78.72629643 215.41660822 -70.25 213.25 C-68.06953953 212.70880124 -65.88853439 212.16979294 -63.70703125 211.6328125 C-62.60439941 211.36114258 -61.50176758 211.08947266 -60.36572266 210.80957031 C-54.90797847 209.49679795 -49.42529495 208.30478091 -43.9375 207.125 C-42.9381543 206.91004883 -41.93880859 206.69509766 -40.90917969 206.47363281 C-38.60659173 205.98016285 -36.30359761 205.48873137 -34 205 C-33.01 207.475 -33.01 207.475 -32 210 C-30.87980469 209.85304688 -29.75960937 209.70609375 -28.60546875 209.5546875 C-25.50609429 209.16087821 -22.4157532 208.86991178 -19.30078125 208.6328125 C-9.52196036 207.72496699 -3.64699943 206.67726945 3.32568359 199.27661133 C11.84779067 191.24220715 26.91013878 190.113457 38 188 C37.48351353 183.60753847 36.9477184 179.31026519 35.9375 175 C35.76089844 174.236875 35.58429688 173.47375 35.40234375 172.6875 C35.26957031 172.130625 35.13679688 171.57375 35 171 C35.56203125 170.75636719 36.1240625 170.51273438 36.703125 170.26171875 C39.44019785 168.75819064 41.45795941 166.93300252 43.75 164.8125 C44.636875 164.00039063 45.52375 163.18828125 46.4375 162.3515625 C47.283125 161.57554687 48.12875 160.79953125 49 160 C54.3864724 155.19995807 59.88225909 150.52528622 65.36303711 145.83374023 C75.31702282 137.30873323 85.24387845 128.7514261 95 120 C94.42054995 116.7155596 93.48139584 115.12506104 91.0859375 112.828125 C90.48910156 112.24546875 89.89226562 111.6628125 89.27734375 111.0625 C88.64957031 110.464375 88.02179688 109.86625 87.375 109.25 C82.96059841 104.9956087 78.7661151 100.66880796 74.76416016 96.02246094 C71.77186872 92.59205099 68.63145515 89.30297215 65.5 86 C64.0948543 84.51320773 62.68991152 83.02622366 61.28515625 81.5390625 C60.57633301 80.78915039 59.86750977 80.03923828 59.13720703 79.26660156 C57.04259095 77.04516956 54.95530327 74.81713287 52.87109375 72.5859375 C52.20980469 71.87824219 51.54851562 71.17054688 50.8671875 70.44140625 C49.62282856 69.10888423 48.37927751 67.77560708 47.13671875 66.44140625 C44.23421593 63.33625121 41.29766653 60.28009796 38.28125 57.28515625 C35.93525292 54.95517615 33.69423404 52.59289599 31.5625 50.0625 C29.14382221 47.25423653 26.64100317 44.60029407 24 42 C21.4207494 39.46027814 18.97782611 36.87548686 16.625 34.125 C13.10111895 30.02185083 9.28157648 26.26209963 5.4296875 22.46875 C2.64290008 19.63715892 0.08021819 16.6712223 -2.4296875 13.59375 C-4.15465007 11.84304172 -5.79436513 11.04420814 -8 10 Z " fill="#E0E4DA" transform="translate(319,127)"/>
<path d="M0 0 C0.34018163 1.70698282 0.6718089 3.41567133 1 5.125 C1.185625 6.07632813 1.37125 7.02765625 1.5625 8.0078125 C2.02580471 11.17648576 2.39168649 13.81116106 2 17 C-0.046875 19.44921875 -0.046875 19.44921875 -2.75 21.6875 C-3.63171875 22.43386719 -4.5134375 23.18023437 -5.421875 23.94921875 C-7.58843068 25.67261532 -9.77054553 27.35916318 -12 29 C-10.71026054 32.4627157 -9.20610762 35.46317922 -7.19921875 38.5625 C-6.36148926 39.86550049 -6.36148926 39.86550049 -5.50683594 41.19482422 C-4.90645508 42.12053223 -4.30607422 43.04624023 -3.6875 44 C-2.41426474 45.98106439 -1.14215637 47.96285343 0.12890625 49.9453125 C0.7748877 50.95239258 1.42086914 51.95947266 2.08642578 52.99707031 C5.01737032 57.59653674 7.88755212 62.23269396 10.75 66.875 C11.29068115 67.75115967 11.8313623 68.62731934 12.38842773 69.5300293 C13.43972966 71.23365375 14.49092176 72.93734599 15.54199219 74.64111328 C17.64190748 78.03853149 19.75624978 81.42680481 21.875 84.8125 C22.26550537 85.43664795 22.65601074 86.0607959 23.05834961 86.70385742 C23.8970023 88.04386587 24.73579455 89.38378699 25.57470703 90.72363281 C30.41416659 98.4528416 35.24949845 106.18461196 40.07763672 113.92089844 C41.35957756 115.97421796 42.64245596 118.02695242 43.92626953 120.07910156 C45.74559244 122.98832626 47.56080648 125.90007466 49.375 128.8125 C49.92841064 129.69574951 50.48182129 130.57899902 51.05200195 131.48901367 C51.55820068 132.30345947 52.06439941 133.11790527 52.5859375 133.95703125 C53.0298584 134.66835205 53.4737793 135.37967285 53.93115234 136.11254883 C55 138 55 138 56 141 C22.33771775 148.96486582 22.33771775 148.96486582 11.125 151.5 C10.08690186 151.73928223 10.08690186 151.73928223 9.02783203 151.98339844 C5.8866072 152.68432621 3.25193645 153 0 153 C-1.17652607 148.49273412 -2.34799936 143.98418915 -3.515625 139.47460938 C-3.9098863 137.95442877 -4.30531622 136.43455057 -4.70214844 134.91503906 C-7.1759758 125.4383773 -9.48979098 115.93841108 -11.65625 106.38671875 C-14.263894 94.92833078 -17.08739952 83.53078172 -19.9609375 72.13671875 C-20.17993839 71.26735687 -20.39893929 70.397995 -20.62457657 69.50228882 C-22.6718635 61.37620774 -24.72436559 53.25145321 -26.78466797 45.12866211 C-27.9247891 40.63254436 -29.05918954 36.13501545 -30.189991 31.63654518 C-30.6175929 29.94034331 -31.04738928 28.24469301 -31.47947311 26.5496273 C-32.07812486 24.20066564 -32.66950257 21.84998293 -33.25927734 19.4987793 C-33.43686584 18.80954376 -33.61445435 18.12030823 -33.79742432 17.41018677 C-34.678117 13.865439 -35.19572432 10.65438993 -35 7 C-30.65961971 5.99755345 -26.31798133 5.0008077 -21.97509766 4.00927734 C-20.49850337 3.67131644 -19.02226142 3.33181225 -17.54638672 2.99072266 C-15.42246236 2.50014619 -13.29732438 2.01517068 -11.171875 1.53125 C-9.8940918 1.23798828 -8.61630859 0.94472656 -7.29980469 0.64257812 C-4 0 -4 0 0 0 Z " fill="#45DEEE" transform="translate(228,191)"/>
<path d="M0 0 C2.16328073 2.16328073 2.44026588 3.01560039 3.15596008 5.89558411 C3.36183746 6.70940048 3.56771484 7.52321686 3.77983093 8.36169434 C3.99855362 9.25658569 4.21727631 10.15147705 4.44262695 11.07348633 C4.79677673 12.48636177 4.79677673 12.48636177 5.15808105 13.92778015 C5.94158767 17.0608844 6.71497287 20.19639567 7.48828125 23.33203125 C8.03336683 25.52103478 8.57904535 27.70989074 9.12528992 29.89860535 C10.56815308 35.68733852 12.00233623 41.47819 13.43493652 47.26947021 C14.59058925 51.93524326 15.7521821 56.59952667 16.91418171 61.26372242 C26.49697991 99.73067065 26.49697991 99.73067065 30.31878376 115.95160389 C31.89022193 122.60753386 33.57313721 129.23071128 35.30078125 135.84765625 C36 139 36 139 36 143 C29.36842179 141.50607304 22.96352834 139.70910572 16.5703125 137.38671875 C15.33297363 136.93901123 14.09563477 136.49130371 12.82080078 136.0300293 C11.42450439 135.52016479 11.42450439 135.52016479 10 135 C4.18900981 62.04302694 4.18900981 62.04302694 1.625 27.5625 C1.53996216 26.42697693 1.45492432 25.29145386 1.36730957 24.121521 C1.13078923 20.95746754 0.89688925 17.79323339 0.6640625 14.62890625 C0.59561127 13.71473434 0.52716003 12.80056244 0.45663452 11.85868835 C0.16860921 7.89680517 -0.08693016 3.97577646 0 0 Z " fill="#09475C" transform="translate(192,201)"/>
<path d="M0 0 C1.1282554 1.1282554 2.25614956 2.25687314 3.3828125 3.38671875 C4.53917449 4.5402876 5.70129744 5.68809309 6.8671875 6.83203125 C10.80086912 10.71214133 14.54805647 14.67997449 18.15234375 18.8671875 C20.2371655 21.27376821 22.36521533 23.63764945 24.5 26 C27.13180445 28.91488929 29.74286926 31.84273211 32.3125 34.8125 C35.47076099 38.44192347 38.72934761 41.97227454 42 45.5 C45.82790023 49.62877295 49.60858423 53.78486012 53.29296875 58.04296875 C55.33633431 60.3855915 57.41680859 62.69273422 59.5 65 C62.18983431 67.98062721 64.86310364 70.97245233 67.5 74 C72.39312418 79.61469088 77.39929847 85.12821557 82.3984375 90.6484375 C94 103.4833887 94 103.4833887 94 106 C91.00025462 106.48080596 88.00022231 106.95968682 85 107.4375 C83.74123047 107.63956055 83.74123047 107.63956055 82.45703125 107.84570312 C77.31348706 108.66308805 72.17153659 109.3834858 67 110 C66.68474365 109.48953125 66.3694873 108.9790625 66.04467773 108.453125 C59.49311061 97.84840002 52.92136217 87.25662812 46.3125 76.6875 C45.3541626 75.15488525 45.3541626 75.15488525 44.37646484 73.59130859 C41.71684937 69.33935559 39.05600347 65.0881867 36.390625 60.83984375 C30.55566618 51.53287324 24.79893112 42.1788872 19.05664062 32.81445312 C15.8542329 27.60101866 12.63475741 22.40166453 9.33984375 17.24609375 C8.78345215 16.37509033 8.22706055 15.50408691 7.65380859 14.60668945 C6.62135551 12.99655052 5.58419177 11.38941876 4.54150391 9.78588867 C4.08565918 9.07537354 3.62981445 8.3648584 3.16015625 7.6328125 C2.76449463 7.02324707 2.36883301 6.41368164 1.96118164 5.78564453 C0.93336169 3.87620203 0.43583893 2.11709854 0 0 Z " fill="#09465B" transform="translate(220,227)"/>
<path d="M0 0 C0 4.00747433 -1.96308587 5.83638766 -4.375 8.8125 C-5.3041694 9.98793733 -6.23119017 11.16507575 -7.15625 12.34375 C-7.86974609 13.25253906 -7.86974609 13.25253906 -8.59765625 14.1796875 C-10.77090463 17.00067286 -12.82467029 19.90156371 -14.875 22.8125 C-18.49894302 27.94103292 -22.21592695 32.98849724 -26 38 C-30.23210669 43.60661401 -34.36674722 49.26998054 -38.4284668 55.00097656 C-41.00306275 58.62612307 -43.63190942 62.20187284 -46.3125 65.75 C-50.00470364 70.64055044 -53.60847549 75.5886065 -57.1875 80.5625 C-61.90072998 87.11074752 -66.64987055 93.63092673 -71.4375 100.125 C-72.00428467 100.89400635 -72.57106934 101.6630127 -73.1550293 102.45532227 C-76.74689166 107.32101505 -80.36421086 112.16705076 -84 117 C-87.86810541 115.06594729 -88.72032974 109.56154643 -90.1875 105.6875 C-90.56841797 104.72392578 -90.94933594 103.76035156 -91.34179688 102.76757812 C-91.69693359 101.83751953 -92.05207031 100.90746094 -92.41796875 99.94921875 C-92.74563232 99.09674561 -93.0732959 98.24427246 -93.41088867 97.3659668 C-94.07511437 94.6983285 -93.87530794 93.56993875 -93 91 C-91.14435154 88.87602959 -89.28792501 86.91549744 -87.27734375 84.94921875 C-86.69843887 84.37218704 -86.119534 83.79515533 -85.52308655 83.20063782 C-84.29500567 81.97927739 -83.06333324 80.76151925 -81.82836914 79.54711914 C-79.96190066 77.7114974 -78.10602037 75.8657163 -76.25195312 74.01757812 C-66.55817793 64.38855564 -66.55817793 64.38855564 -62.06640625 60.58203125 C-55.31833279 54.82729716 -49.23433247 48.29767112 -43 42 C-27.9492926 26.79638266 -27.9492926 26.79638266 -21.9140625 21.68701172 C-17.57444072 17.8621665 -13.56926857 13.6702137 -9.5 9.5625 C-8.12328125 8.17901367 -8.12328125 8.17901367 -6.71875 6.76757812 C-4.47684945 4.51400101 -2.237334 2.25810925 0 0 Z " fill="#0B4559" transform="translate(175,144)"/>
<path d="M0 0 C3.81589811 2.83787381 7.42143777 5.87004716 11 9 C12.37285156 10.18916016 12.37285156 10.18916016 13.7734375 11.40234375 C17.89304503 15.03267238 21.79210454 18.50894636 25 23 C24.75 25.3125 24.75 25.3125 24 27 C19.31192638 26.14487522 16.97028496 23.22128186 13.8125 19.875 C8.86021007 14.76013313 3.81958496 10.13536399 -2 6 C-1.319375 7.051875 -0.63875 8.10375 0.0625 9.1875 C1.6356595 11.90327009 2.02512513 12.70477974 1.75 15.9375 C1.37875 16.9584375 1.37875 16.9584375 1 18 C0.01 18 -0.98 18 -2 18 C-3.71875 15.6640625 -3.71875 15.6640625 -5.5 12.625 C-8.08055221 8.20409812 -8.08055221 8.20409812 -12 5 C-11.505 6.485 -11.505 6.485 -11 8 C-10.85122089 10.5979122 -10.76896765 13.15143149 -10.75 15.75 C-10.729375 16.4409375 -10.70875 17.131875 -10.6875 17.84375 C-10.64909093 22.95215603 -11.592025 26.47437323 -14 31 C-16.6875 32.9375 -16.6875 32.9375 -19 34 C-20.15922474 30.52232579 -19.79763024 29.92965957 -18.5625 26.625 C-16.4256543 19.91904644 -15.147317 11.76443705 -18.34765625 5.26171875 C-20.55506489 2.24023033 -22.66929548 0.69800623 -26 -1 C-29.69316116 -0.85227355 -32.96701051 -0.16642106 -36 2 C-37.23290201 4.45704762 -37.23290201 4.45704762 -38 7 C-38.33 7.66 -38.66 8.32 -39 9 C-40.95157512 22.7446648 -32.65811321 37.0665114 -24.64550781 47.81738281 C-22.81847425 50.15492953 -20.98705065 52.48055799 -19.06176758 54.73828125 C-15.95363238 58.50703899 -15.95363238 58.50703899 -16.22265625 61.3671875 C-16.47917969 61.90601563 -16.73570312 62.44484375 -17 63 C-19.6258502 62.62814758 -20.79692192 62.20781184 -22.67578125 60.28515625 C-23.21589844 59.55167969 -23.75601563 58.81820312 -24.3125 58.0625 C-24.91707031 57.24265625 -25.52164063 56.4228125 -26.14453125 55.578125 C-26.75683594 54.72734375 -27.36914062 53.8765625 -28 53 C-28.87205078 51.84757812 -28.87205078 51.84757812 -29.76171875 50.671875 C-34.79641474 43.83826516 -38.3331301 36.63307611 -42 29 C-41.67 37.58 -41.34 46.16 -41 55 C-42.98 55.99 -42.98 55.99 -45 57 C-49.36804719 39.06132077 -49.89677933 19.690338 -44 2 C-55.7741611 9.79098745 -67.0999695 19.14995424 -75 31 C-77.625 31.1875 -77.625 31.1875 -80 31 C-79.54596111 26.18020256 -77.52953829 23.95418825 -74.25 20.5 C-73.38890625 19.5821875 -72.5278125 18.664375 -71.640625 17.71875 C-50.55846556 -3.98714197 -28.26183827 -18.1683246 0 0 Z " fill="#144859" transform="translate(275,150)"/>
<path d="M0 0 C4.1134946 1.51107965 7.12973815 3.87714803 10.0625 7.125 C12.87645328 15.56685985 11.10847077 24.42831608 8.42578125 32.6640625 C6.7379803 35.7108092 5.19423825 36.66760976 2.0625 38.125 C-1.75 38.8125 -1.75 38.8125 -4.9375 39.125 C-5.90095444 37.25262629 -6.85803102 35.3769701 -7.8125 33.5 C-8.34617188 32.45585937 -8.87984375 31.41171875 -9.4296875 30.3359375 C-12.63593631 23.50812267 -14.72990023 16.49201659 -12.25 9.06640625 C-9.60189495 3.93570271 -5.92020557 0.25192364 0 0 Z " fill="#E1E5D9" transform="translate(247.9375,147.875)"/>
<path d="M0 0 C0.33 0 0.66 0 1 0 C1.50806447 1.72681437 2.00610467 3.45657979 2.5 5.1875 C2.7784375 6.15042969 3.056875 7.11335938 3.34375 8.10546875 C3.96952908 10.86560149 4.04974903 13.18710708 4 16 C-0.28905592 17.03202351 -4.58159908 18.0487179 -8.875 19.0625 C-10.09832031 19.35705078 -11.32164062 19.65160156 -12.58203125 19.95507812 C-14.33193359 20.3659668 -14.33193359 20.3659668 -16.1171875 20.78515625 C-17.19597168 21.04176025 -18.27475586 21.29836426 -19.38623047 21.56274414 C-22 22 -22 22 -24 21 C-17.56749307 15.04028855 -11.05199479 9.30576339 -4.21484375 3.8125 C-1.97246433 2.03873643 -1.97246433 2.03873643 0 0 Z " fill="#50DDE8" transform="translate(353,299)"/>
<path d="M0 0 C1.37846455 2.75692909 0.58846587 3.89610337 -0.3125 6.8125 C-2.14045094 13.13486244 -3.11984985 19.48688891 -4 26 C-8.82419514 22.86427316 -13.42284316 19.4851448 -18 16 C-16.45688712 12.03844121 -13.96708452 10.06028004 -10.6875 7.4375 C-9.74261719 6.67308594 -8.79773438 5.90867188 -7.82421875 5.12109375 C-5.2916553 3.21904402 -2.74880831 1.56717122 0 0 Z " fill="#D6E5DE" transform="translate(231,151)"/>
<path d="M0 0 C3.54875053 -0.19715281 6.09557968 -0.17831524 9 2 C9.6875 4.4375 9.6875 4.4375 10 7 C10.33 7.99 10.66 8.98 11 10 C12.32 10 13.64 10 15 10 C15.12375 9.195625 15.2475 8.39125 15.375 7.5625 C15.58125 6.716875 15.7875 5.87125 16 5 C16.66 4.67 17.32 4.34 18 4 C18.65213292 1.97536745 18.65213292 1.97536745 19 0 C23.21658265 5.09503737 22 10.58843855 22 17 C22.66 17.99 23.32 18.98 24 20 C24 20.99 24 21.98 24 23 C24.66 23 25.32 23 26 23 C26 23.99 26 24.98 26 26 C26.66 26 27.32 26 28 26 C27.67 27.32 27.34 28.64 27 30 C26.01 29.67 25.02 29.34 24 29 C23.6404086 27.67350729 23.31009049 26.33892971 23 25 C21.7262605 23.3322431 21.7262605 23.3322431 20.0859375 21.828125 C19.49264648 21.24973877 18.89935547 20.67135254 18.28808594 20.07543945 C17.65676758 19.47304443 17.02544922 18.87064941 16.375 18.25 C15.09456822 17.0005255 13.81590469 15.74923623 12.5390625 14.49609375 C11.92579102 13.89522949 11.31251953 13.29436523 10.68066406 12.67529297 C6.72782214 8.7350836 3.09506422 4.64259633 0 0 Z " fill="#DDE3DC" transform="translate(389,218)"/>
<path d="M0 0 C0.33 0 0.66 0 1 0 C1.125 3.375 1.125 3.375 1 7 C0.34 7.66 -0.32 8.32 -1 9 C-1.99 9 -2.98 9 -4 9 C-4.40605469 9.88171875 -4.40605469 9.88171875 -4.8203125 10.78125 C-5.98465841 12.97114562 -7.27739511 14.61267402 -8.875 16.5 C-12.18755906 20.77972959 -13.59305224 25.19257443 -15.04296875 30.36328125 C-16.0203854 33.05616386 -16.75048737 34.27518759 -19 36 C-20.485 36.495 -20.485 36.495 -22 37 C-23.68538601 38.99665314 -23.68538601 38.99665314 -25 41 C-26.32 40.67 -27.64 40.34 -29 40 C-28.64397705 39.51869629 -28.2879541 39.03739258 -27.92114258 38.54150391 C-21.15606733 29.39085519 -14.41310851 20.22525837 -7.75 11 C-7.20190674 10.24154785 -6.65381348 9.4830957 -6.08911133 8.70166016 C-4.01523728 5.82509147 -1.96745748 2.95118622 0 0 Z " fill="#11B0E4" transform="translate(150,179)"/>
<path d="M0 0 C2.65618065 2.65618065 3.10319055 5.51487982 3.98046875 9.0546875 C4.15757889 9.75264435 4.33468903 10.4506012 4.51716614 11.16970825 C4.88959766 12.64658798 5.25837699 14.12439279 5.6237793 15.60302734 C6.18434749 17.86229439 6.76229309 20.11661959 7.34179688 22.37109375 C7.70158595 23.80702521 8.06034415 25.24321544 8.41796875 26.6796875 C8.67878487 27.68925003 8.67878487 27.68925003 8.94487 28.71920776 C9.76894663 32.11605159 10.28808539 34.68237934 9 38 C9 37.01 9 36.02 9 35 C7.68 35.66 6.36 36.32 5 37 C5 34 5 34 6 33 C5.67 33 5.34 33 5 33 C4.67 36.63 4.34 40.26 4 44 C3.67 44 3.34 44 3 44 C2.57028728 38.53754375 2.14311155 33.07489717 1.71826172 27.61206055 C1.57344759 25.75458446 1.42794643 23.8971618 1.28173828 22.03979492 C1.07142382 19.36651212 0.86359956 16.69304546 0.65625 14.01953125 C0.59062866 13.19226028 0.52500732 12.36498932 0.45739746 11.51264954 C0.16124114 7.66447957 -0.08183559 3.86332201 0 0 Z " fill="#05526C" transform="translate(192,201)"/>
<path d="M0 0 C5.41338196 3.8667014 9.6213363 8.69449061 12 15 C11.00903904 18.56085303 8.81526703 20.16335888 5.875 22.25 C5.15054687 22.77078125 4.42609375 23.2915625 3.6796875 23.828125 C3.12539063 24.21484375 2.57109375 24.6015625 2 25 C0.4839424 20.43998299 0.95223094 15.66830245 1.0390625 10.93164062 C1.08165377 7.14456687 0.92188523 3.68033867 0 0 Z " fill="#CFE0DE" transform="translate(262,153)"/>
<path d="M0 0 C0.99 0.33 1.98 0.66 3 1 C2.18208984 2.07314453 2.18208984 2.07314453 1.34765625 3.16796875 C-4.30938717 10.64300219 -9.7170557 18.25667738 -15 26 C-16 23 -16 23 -16 21 C-17.32 21 -18.64 21 -20 21 C-19 18 -19 18 -16.875 16.3125 C-13.71750668 13.77277711 -11.26181884 10.98282265 -8.6484375 7.90234375 C-4.56304139 3.18768046 -4.56304139 3.18768046 -1 2 C-0.67 1.34 -0.34 0.68 0 0 Z " fill="#08465C" transform="translate(160,162)"/>
<path d="M0 0 C2.50509315 2.33859149 4.38221506 4.86085286 6.3125 7.6875 C9.05037444 11.68631448 11.92761729 15.48974522 15.03125 19.2109375 C16 21 16 21 15.65625 23.2265625 C15.4396875 23.81179687 15.223125 24.39703125 15 25 C12.34464333 24.62894579 11.18951459 24.19384141 9.2890625 22.25 C8.73992187 21.5075 8.19078125 20.765 7.625 20 C6.72974609 18.79537109 6.72974609 18.79537109 5.81640625 17.56640625 C3.12606783 13.76521841 0.52521307 9.91269279 -2 6 C-0.68 6 0.64 6 2 6 C1.34 5.67 0.68 5.34 0 5 C0 3.35 0 1.7 0 0 Z " fill="#054B6B" transform="translate(243,188)"/>
<path d="M0 0 C0 3 0 3 -2.375 5.6875 C-5 8 -5 8 -7 8 C-6.67 8.99 -6.34 9.98 -6 11 C-7.60875 11.61875 -7.60875 11.61875 -9.25 12.25 C-12.58543469 13.72191248 -14.8898788 14.91597671 -17 18 C-17.61119363 20.99381287 -17.86966283 23.95011021 -18 27 C-17.34 27.33 -16.68 27.66 -16 28 C-16.99 28 -17.98 28 -19 28 C-21.04296875 25.375 -21.04296875 25.375 -23.1875 22 C-23.55552734 21.42765625 -23.92355469 20.8553125 -24.30273438 20.265625 C-25.21125071 18.84975538 -26.10686477 17.42562203 -27 16 C-26.67 15.34 -26.34 14.68 -26 14 C-24.1796875 13.47265625 -24.1796875 13.47265625 -21.875 13.0625 C-17.52750062 12.16110459 -13.90437364 11.15138956 -10 9 C-8.49547543 6.45631001 -8.49547543 6.45631001 -8 4 C-7.34 4.33 -6.68 4.66 -6 5 C-4.02 3.35 -2.04 1.7 0 0 Z " fill="#148FDB" transform="translate(270,172)"/>
<path d="M0 0 C1.1282554 1.1282554 2.25614956 2.25687314 3.3828125 3.38671875 C4.53917449 4.5402876 5.70129744 5.68809309 6.8671875 6.83203125 C12.30885007 12.19958558 17.74787245 17.62180867 22 24 C19.33333333 22.66666667 16.66666667 21.33333333 14 20 C15.08231478 22.52540116 16.06855624 24.06647878 18.0625 26 C20.07607222 28.07852616 20.59824094 29.18768658 21 32 C20.01 32.495 20.01 32.495 19 33 C16.77592179 29.38897729 14.55222006 25.77772309 12.32885742 22.16625977 C11.57342547 20.939309 10.8178931 19.71242005 10.06225586 18.4855957 C8.97222511 16.71582264 7.88256317 14.94582297 6.79296875 13.17578125 C6.1383667 12.11270752 5.48376465 11.04963379 4.80932617 9.9543457 C4.21224854 8.97941162 3.6151709 8.00447754 3 7 C2.42677002 6.08887451 1.85354004 5.17774902 1.26293945 4.23901367 C0 2 0 2 0 0 Z " fill="#034F6A" transform="translate(220,227)"/>
<path d="M0 0 C0.33 0 0.66 0 1 0 C1.66 7.26 2.32 14.52 3 22 C3.66 18.04 4.32 14.08 5 10 C5.33 10 5.66 10 6 10 C6.6466598 18.01396246 7.16677223 25.95787245 7 34 C5.68 34.66 4.36 35.32 3 36 C0.05630351 23.9108387 -0.12004159 12.36428361 0 0 Z " fill="#09566F" transform="translate(227,171)"/>
<path d="M0 0 C2.91517292 1.07401108 4.77810176 1.77810176 7 4 C7 4.66 7 5.32 7 6 C7.66 6.66 8.32 7.32 9 8 C8.72793135 9.6777567 8.38499891 11.34450469 8 13 C7.9629721 14.6662553 7.95240038 16.33401319 8 18 C-5.40566038 6.78301887 -5.40566038 6.78301887 -7 2 C-6.01 2.33 -5.02 2.66 -4 3 C-4 3.66 -4 4.32 -4 5 C-1.48916886 3.74458443 -1.12874554 2.49936512 0 0 Z " fill="#DAE5E0" transform="translate(359,176)"/>
<path d="M0 0 C1.65 0.33 3.3 0.66 5 1 C5 5.10575267 2.82046274 6.70058002 0.125 9.5 C-2.49705951 12.27893487 -4.87969263 14.81953895 -7 18 C-9.625 18.1875 -9.625 18.1875 -12 18 C-11.56886587 13.06890334 -9.36192071 10.81290892 -6 7.3125 C-2.60430215 3.93780615 -2.60430215 3.93780615 0 0 Z " fill="#054962" transform="translate(207,163)"/>
<path d="M0 0 C3.21992436 2.72148406 4.93336196 6.24402178 6.8125 9.9375 C7.14958984 10.55818359 7.48667969 11.17886719 7.83398438 11.81835938 C10.16784264 16.39350115 10.16784264 16.39350115 9.36328125 19.30078125 C7.51919902 21.59927916 5.36431026 23.25787665 3 25 C1.39698043 19.26562104 0.62202277 13.93883902 0.375 8 C0.33632812 7.22527344 0.29765625 6.45054687 0.2578125 5.65234375 C0.16478643 3.76856585 0.08136825 1.88431744 0 0 Z " fill="#48D2E3" transform="translate(232,178)"/>
<path d="M0 0 C0.33 0 0.66 0 1 0 C1.43040067 5.99546604 1.85754711 11.99115196 2.28173828 17.98706055 C2.42636114 20.02488396 2.57185808 22.06264555 2.71826172 24.1003418 C2.92908339 27.0367865 3.13671447 29.97344247 3.34375 32.91015625 C3.40937134 33.81459976 3.47499268 34.71904327 3.54260254 35.65089417 C4.55311368 50.12599189 4.55311368 50.12599189 1 54.9375 C0.443125 55.70964844 -0.11375 56.48179687 -0.6875 57.27734375 C-1.120625 57.84582031 -1.55375 58.41429687 -2 59 C-2.99 58.01 -3.98 57.02 -5 56 C-4.01 56 -3.02 56 -2 56 C-2 54.35 -2 52.7 -2 51 C-0.68 50.34 0.64 49.68 2 49 C1.93941406 48.22624023 1.87882813 47.45248047 1.81640625 46.65527344 C0.61636267 31.07778465 -0.32750647 15.62933671 0 0 Z " fill="#1B9DC8" transform="translate(198,283)"/>
<path d="M0 0 C7.68614264 4.88576509 14.83381472 10.39553361 22 16 C21.34 16.33 20.68 16.66 20 17 C16.26415094 15.52830189 16.26415094 15.52830189 15 13 C14.01 12.67 13.02 12.34 12 12 C10.3125 10.4375 10.3125 10.4375 9 9 C7.02 9.99 7.02 9.99 5 11 C5.33 11.99 5.66 12.98 6 14 C4.35 14.66 2.7 15.32 1 16 C0.67 15.34 0.34 14.68 0 14 C0.350625 12.948125 0.70125 11.89625 1.0625 10.8125 C2.19900995 6.19069289 1.6034346 4.36490529 0 0 Z " fill="#DAE8E0" transform="translate(91,263)"/>
<path d="M0 0 C1.65 0 3.3 0 5 0 C4.67 1.32 4.34 2.64 4 4 C4.99 3.67 5.98 3.34 7 3 C7.66 4.98 8.32 6.96 9 9 C11.34058637 6.87219421 12.70700306 4.88437779 14 2 C15.98 2.66 17.96 3.32 20 4 C19.67 4.66 19.34 5.32 19 6 C18.34 6 17.68 6 17 6 C17 6.66 17 7.32 17 8 C15.70766393 9.37310707 14.37562854 10.71034824 13 12 C13.66 12 14.32 12 15 12 C15.66 13.98 16.32 15.96 17 18 C3.41847826 6.63586957 3.41847826 6.63586957 0 0 Z " fill="#E1E5DC" transform="translate(335,160)"/>
<path d="M0 0 C4.49159136 3.65022699 8.68032389 7.22796559 12 12 C11.8125 14.375 11.8125 14.375 11 16 C7.69881206 15.4194679 6.08865924 14.45131901 3.765625 12.05859375 C3.19199219 11.47529297 2.61835938 10.89199219 2.02734375 10.29101562 C1.44082031 9.67935547 0.85429687 9.06769531 0.25 8.4375 C-0.35199219 7.82197266 -0.95398438 7.20644531 -1.57421875 6.57226562 C-3.05634381 5.05485187 -4.5290967 3.52829404 -6 2 C-3 2 -3 2 -0.3125 4.5 C0.450625 5.325 1.21375 6.15 2 7 C2.33 6.01 2.66 5.02 3 4 C2.01 4 1.02 4 0 4 C0 2.68 0 1.36 0 0 Z " fill="#02496C" transform="translate(288,161)"/>
<path d="M0 0 C0.99 0.66 1.98 1.32 3 2 C1.23166049 6.77451669 -2.78857789 9.278846 -6.65625 12.2890625 C-9.55820614 14.60778236 -11.69280266 16.47056718 -13 20 C-14.32 20 -15.64 20 -17 20 C-16.1195104 22.24768247 -16.1195104 22.24768247 -13.5 23.3125 C-11 25 -11 25 -10.1875 27.6875 C-10.125625 28.450625 -10.06375 29.21375 -10 30 C-14.87685861 28.64531705 -16.48592381 26.28324091 -19 22 C-17.40395517 17.59783715 -14.0729739 15.24476446 -10.5625 12.375 C-9.97662109 11.88515625 -9.39074219 11.3953125 -8.78710938 10.890625 C-6.25856149 8.78972029 -3.73731556 6.82487704 -1 5 C-0.27034634 2.43717258 -0.27034634 2.43717258 0 0 Z " fill="#108CD3" transform="translate(234,200)"/>
<path d="M0 0 C0.33 0.99 0.66 1.98 1 3 C0.34 3 -0.32 3 -1 3 C-1 4.65 -1 6.3 -1 8 C-1.99 8.495 -1.99 8.495 -3 9 C-3 8.34 -3 7.68 -3 7 C-3.66 7 -4.32 7 -5 7 C-5.66 8.32 -6.32 9.64 -7 11 C-7.66 11 -8.32 11 -9 11 C-9.33 12.98 -9.66 14.96 -10 17 C-12.64 17 -15.28 17 -18 17 C-13.0440326 10.70458195 -7.25793474 5.96796864 -1 1 C-0.67 0.67 -0.34 0.34 0 0 Z " fill="#43D8F6" transform="translate(352,300)"/>
<path d="M0 0 C1.22589844 0.01353516 1.22589844 0.01353516 2.4765625 0.02734375 C3.41628906 0.04474609 3.41628906 0.04474609 4.375 0.0625 C4.5 6.8125 4.5 6.8125 3.375 9.0625 C-1.44534262 8.64932778 -3.53492611 6.68230085 -6.625 3.0625 C-6.625 2.4025 -6.625 1.7425 -6.625 1.0625 C-4.21954362 -0.14022819 -2.67503047 -0.03821472 0 0 Z " fill="#E4E6DA" transform="translate(221.625,163.9375)"/>
<path d="M0 0 C0 0.66 0 1.32 0 2 C2.97 2.495 2.97 2.495 6 3 C2.84976086 4.76174511 -0.08447018 5.58197551 -3.625 6.25 C-5.06746094 6.53617187 -5.06746094 6.53617187 -6.5390625 6.828125 C-7.35117187 6.88484375 -8.16328125 6.9415625 -9 7 C-9.66 6.34 -10.32 5.68 -11 5 C-12.98356483 4.28591666 -14.98315437 3.61382258 -17 3 C-17 2.67 -17 2.34 -17 2 C-14.72954771 1.66408104 -12.45862367 1.33134935 -10.1875 1 C-8.29064453 0.7215625 -8.29064453 0.7215625 -6.35546875 0.4375 C-3 0 -3 0 0 0 Z " fill="#D0DBD2" transform="translate(312,333)"/>
<path d="M0 0 C0.33 0 0.66 0 1 0 C1.13277344 0.71027344 1.26554688 1.42054688 1.40234375 2.15234375 C1.57894531 3.07144531 1.75554687 3.99054688 1.9375 4.9375 C2.11152344 5.85402344 2.28554687 6.77054687 2.46484375 7.71484375 C2.77714988 9.95289844 2.77714988 9.95289844 4 11 C4.39993686 13.68862664 4.75134543 16.36352217 5.0625 19.0625 C5.15337891 19.82111328 5.24425781 20.57972656 5.33789062 21.36132812 C5.5624374 23.2404301 5.78170978 25.12016095 6 27 C12.435 26.505 12.435 26.505 19 26 C19 26.33 19 26.66 19 27 C17.4176994 27.33820166 15.83410625 27.67035939 14.25 28 C13.36828125 28.185625 12.4865625 28.37125 11.578125 28.5625 C9 29 9 29 5 29 C3.96172704 25.10860127 2.94747824 21.21132951 1.9375 17.3125 C1.64294922 16.20970703 1.34839844 15.10691406 1.04492188 13.97070312 C0.77099609 12.90400391 0.49707031 11.83730469 0.21484375 10.73828125 C-0.04176025 9.75899658 -0.29836426 8.77971191 -0.56274414 7.77075195 C-1.02289876 4.8548978 -0.76151422 2.83138669 0 0 Z " fill="#58D2DD" transform="translate(223,315)"/>
<path d="M0 0 C-2.80452702 1.51699416 -5.3857302 2.45308563 -8.5 3.125 C-9.2528125 3.29257813 -10.005625 3.46015625 -10.78125 3.6328125 C-13 4 -13 4 -17 4 C-17 10.93 -17 17.86 -17 25 C-19.55305926 21.17041112 -19.33112701 17.99945272 -19.3125 13.5625 C-19.32861328 12.79873047 -19.34472656 12.03496094 -19.36132812 11.24804688 C-19.36425261 7.88781471 -19.27432675 5.56008378 -17.78125 2.51171875 C-15.51604719 0.58927689 -14.13531345 0.41301273 -11.1875 0.25 C-9.86685547 0.16685547 -9.86685547 0.16685547 -8.51953125 0.08203125 C-5.67618004 -0.01054298 -2.84433212 -0.07485085 0 0 Z " fill="#18AFDD" transform="translate(210,194)"/>
<path d="M0 0 C0.66 1.32 1.32 2.64 2 4 C3.65 3.01 5.3 2.02 7 1 C7 1.99 7 2.98 7 4 C5.36368108 5.04892238 3.69514137 6.04906703 2 7 C1.67 7.66 1.34 8.32 1 9 C4.3 8.34 7.6 7.68 11 7 C10.67 7.66 10.34 8.32 10 9 C6.70580475 9.91223868 3.36984798 10.40281175 0 11 C-1.65 7.7 -3.3 4.4 -5 1 C-3.68 1.33 -2.36 1.66 -1 2 C-0.67 1.34 -0.34 0.68 0 0 Z " fill="#D4E5DE" transform="translate(243,176)"/>
<path d="M0 0 C1.24675325 4.98701299 1.24675325 4.98701299 0 8 C-0.99 8.33 -1.98 8.66 -3 9 C-3.99 10.485 -3.99 10.485 -5 12 C-5.66 12 -6.32 12 -7 12 C-6.88693303 13.95894361 -6.88693303 13.95894361 -6 16 C-3.50965614 17.29660434 -3.50965614 17.29660434 -1 18 C-1 18.66 -1 19.32 -1 20 C-5.17230166 18.3001734 -6.44487313 16.55512687 -10 13 C-5.05 6.565 -5.05 6.565 0 0 Z " fill="#30A6CB" transform="translate(100,248)"/>
<path d="M0 0 C1.98 1.65 3.96 3.3 6 5 C5.34 5.66 4.68 6.32 4 7 C3.75746187 9.21072977 3.75746187 9.21072977 3.875 11.625 C3.89304687 12.44226563 3.91109375 13.25953125 3.9296875 14.1015625 C3.95289063 14.72804687 3.97609375 15.35453125 4 16 C4.99 16 5.98 16 7 16 C7.33 16.66 7.66 17.32 8 18 C7.01 18 6.02 18 5 18 C5 19.65 5 21.3 5 23 C3.02 23.99 3.02 23.99 1 25 C1.00523682 24.42032471 1.01047363 23.84064941 1.01586914 23.2434082 C1.03674334 20.5997833 1.04969327 17.95617579 1.0625 15.3125 C1.07087891 14.40048828 1.07925781 13.48847656 1.08789062 12.54882812 C1.09111328 11.66259766 1.09433594 10.77636719 1.09765625 9.86328125 C1.10289307 9.05157471 1.10812988 8.23986816 1.11352539 7.40356445 C0.9929791 4.85135327 0.559949 2.48973863 0 0 Z " fill="#D8E4DF" transform="translate(262,153)"/>
<path d="M0 0 C0.33 0 0.66 0 1 0 C1.125 3.375 1.125 3.375 1 7 C0.34 7.66 -0.32 8.32 -1 9 C-1.99 9 -2.98 9 -4 9 C-4.24492187 9.55171875 -4.48984375 10.1034375 -4.7421875 10.671875 C-6.25738114 13.47639491 -8.11084126 15.78103123 -10.125 18.25 C-10.84945312 19.14203125 -11.57390625 20.0340625 -12.3203125 20.953125 C-12.87460938 21.62859375 -13.42890625 22.3040625 -14 23 C-14.66 22.67 -15.32 22.34 -16 22 C-15.65743164 21.5467334 -15.31486328 21.0934668 -14.96191406 20.62646484 C-13.38954119 18.54394668 -11.81975666 16.45949082 -10.25 14.375 C-9.71117187 13.66214844 -9.17234375 12.94929687 -8.6171875 12.21484375 C-6.21344714 9.0196279 -3.85196727 5.82948922 -1.671875 2.4765625 C-1.12015625 1.65929687 -0.5684375 0.84203125 0 0 Z " fill="#24A2D0" transform="translate(150,179)"/>
<path d="M0 0 C-4.12324647 4.25209792 -8.51282966 8.13635705 -13 12 C-13.33 11.34 -13.66 10.68 -14 10 C-14.66 9.67 -15.32 9.34 -16 9 C-14.68 9 -13.36 9 -12 9 C-12 8.34 -12 7.68 -12 7 C-11.01 7 -10.02 7 -9 7 C-9.33 4.69 -9.66 2.38 -10 0 C-6.42355152 -1.2380014 -3.66305234 -0.74926071 0 0 Z " fill="#2089DE" transform="translate(371,284)"/>
<path d="M0 0 C0 1.98 0 3.96 0 6 C-1.65 5.34 -3.3 4.68 -5 4 C-8.63 6.97 -12.26 9.94 -16 13 C-16.66 12.67 -17.32 12.34 -18 12 C-18 11.34 -18 10.68 -18 10 C-16.35 9.67 -14.7 9.34 -13 9 C-13 8.34 -13 7.68 -13 7 C-12.34 7 -11.68 7 -11 7 C-10.8453125 6.071875 -10.8453125 6.071875 -10.6875 5.125 C-10 3 -10 3 -7 1 C-4.605208 0.41590439 -2.46475374 0 0 0 Z " fill="#CCE5E9" transform="translate(316,134)"/>
<path d="M0 0 C-6 3 -6 3 -8.3125 4.125 C-9.98522686 4.88447891 -9.98522686 4.88447891 -11 6 C-13.35694954 5.90968426 -15.71153582 5.75311872 -18.0625 5.5625 C-19.35285156 5.46066406 -20.64320313 5.35882813 -21.97265625 5.25390625 C-23.47119141 5.12822266 -23.47119141 5.12822266 -25 5 C-25 4.67 -25 4.34 -25 4 C-21.58700991 3.1306619 -18.16916192 2.28220776 -14.75 1.4375 C-13.78191406 1.19064453 -12.81382812 0.94378906 -11.81640625 0.68945312 C-10.88183594 0.46064453 -9.94726562 0.23183594 -8.984375 -0.00390625 C-7.69611816 -0.32597046 -7.69611816 -0.32597046 -6.38183594 -0.65454102 C-3.90763516 -1.0133965 -2.35189657 -0.78317203 0 0 Z " fill="#D5E9E4" transform="translate(262,338)"/>
<path d="M0 0 C3.375 0.3125 3.375 0.3125 7 1 C9 4 9 4 9 7 C9.66 7 10.32 7 11 7 C11 7.99 11 8.98 11 10 C11.66 10 12.32 10 13 10 C12.67 11.32 12.34 12.64 12 14 C11.01 13.67 10.02 13.34 9 13 C8.85691406 12.40574219 8.71382813 11.81148437 8.56640625 11.19921875 C7.79033916 8.18593757 6.18459363 6.92484727 3.9375 4.8125 C2.61117394 3.55610325 1.29478069 2.28888191 0 1 C0 0.67 0 0.34 0 0 Z " fill="#CFE3E9" transform="translate(404,234)"/>
<path d="M0 0 C0.66 0.66 1.32 1.32 2 2 C0.74057614 3.19959375 -0.53295286 4.38439443 -1.8125 5.5625 C-2.87404297 6.55443359 -2.87404297 6.55443359 -3.95703125 7.56640625 C-4.63121094 8.03949219 -5.30539063 8.51257813 -6 9 C-9 8 -9 8 -10.1875 5.9375 C-10.455625 5.298125 -10.72375 4.65875 -11 4 C-9.39125 3.566875 -9.39125 3.566875 -7.75 3.125 C-4.90599636 2.27179891 -2.56491017 1.4363497 0 0 Z " fill="#5FD2DE" transform="translate(254,183)"/>
<path d="M0 0 C0 0.66 0 1.32 0 2 C-1.423125 2.86625 -1.423125 2.86625 -2.875 3.75 C-6.4294113 6.30917613 -7.04949793 7.81779089 -8 12 C-8.66 12 -9.32 12 -10 12 C-10.33 14.64 -10.66 17.28 -11 20 C-11.33 20 -11.66 20 -12 20 C-12.50408218 13.04086552 -12.18394918 8.69481972 -8 3 C-4.99364566 0.08759424 -4.37717077 0 0 0 Z " fill="#D0DFDD" transform="translate(247,149)"/>
<path d="M0 0 C-0.66 2.31 -1.32 4.62 -2 7 C-2.515625 6.67 -3.03125 6.34 -3.5625 6 C-6.78026512 4.67989123 -9.5570528 4.86757895 -13 5 C-12.67 3.68 -12.34 2.36 -12 1 C-10.37681021 0.63762737 -8.7513642 0.28534843 -7.125 -0.0625 C-6.22007812 -0.25972656 -5.31515625 -0.45695313 -4.3828125 -0.66015625 C-2 -1 -2 -1 0 0 Z " fill="#084456" transform="translate(240,146)"/>
<path d="M0 0 C0.66 0 1.32 0 2 0 C1.125 5.875 1.125 5.875 0 7 C-1.55753051 7.22670908 -3.12377359 7.39435092 -4.69140625 7.53515625 C-5.63564453 7.62216797 -6.57988281 7.70917969 -7.55273438 7.79882812 C-9.04256836 7.9293457 -9.04256836 7.9293457 -10.5625 8.0625 C-11.55958984 8.15337891 -12.55667969 8.24425781 -13.58398438 8.33789062 C-16.05565702 8.56258814 -18.52763256 8.78310351 -21 9 C-17.77038428 6.84692286 -15.38872346 6.22765131 -11.625 5.375 C-10.50351562 5.11460937 -9.38203125 4.85421875 -8.2265625 4.5859375 C-5.3847292 4.06986608 -2.87555316 3.88153152 0 4 C0 2.68 0 1.36 0 0 Z " fill="#C5EAE7" transform="translate(357,311)"/>
<path d="M0 0 C7.70641523 -0.53599488 13.49028016 -0.65412434 20 3.80859375 C22.31489357 5.18758308 24.3520384 5.60004747 27 6 C26.67 7.32 26.34 8.64 26 10 C25.12859375 9.51789063 24.2571875 9.03578125 23.359375 8.5390625 C15.64763463 4.40458583 8.84491731 1.79377463 0 1 C0 0.67 0 0.34 0 0 Z " fill="#CADEDA" transform="translate(247,140)"/>
<path d="M0 0 C6.37675351 6.20440882 6.37675351 6.20440882 8 9 C7.6875 11.25 7.6875 11.25 7 13 C3.75728494 12.4409112 2.06942576 11.5867822 0 9 C0 7 0 7 2 5 C1.34 3.35 0.68 1.7 0 0 Z " fill="#044A6F" transform="translate(251,200)"/>
<path d="M0 0 C6.54551919 5.34328097 11.98462374 11.20205026 17 18 C14 18 14 18 12.5 16.50390625 C12.005 15.86324219 11.51 15.22257813 11 14.5625 C8.62300315 11.49568071 8.62300315 11.49568071 5 10 C4.3125 7.9375 4.3125 7.9375 4 6 C3.01 6 2.02 6 1 6 C0.67 4.02 0.34 2.04 0 0 Z " fill="#2786D5" transform="translate(331,157)"/>
<path d="M0 0 C3.96480015 3.61496485 6.78693543 7.48872448 9.66796875 12.01171875 C10.98032997 14.10959405 10.98032997 14.10959405 13 16 C14.32 16 15.64 16 17 16 C17 16.66 17 17.32 17 18 C14.69 18 12.38 18 10 18 C10 17.34 10 16.68 10 16 C9.34 16 8.68 16 8 16 C6.96981052 13.42452631 5.97423875 10.91280809 5.1875 8.25 C4.19129854 5.72034804 4.19129854 5.72034804 1.375 5.1875 C0.59125 5.125625 -0.1925 5.06375 -1 5 C-0.67 3.35 -0.34 1.7 0 0 Z " fill="#157FCE" transform="translate(242,196)"/>
<path d="M0 0 C0.721875 0.12375 1.44375 0.2475 2.1875 0.375 C1.64523019 4.17088866 -0.01377563 5.84711993 -2.8125 8.375 C-5.2875 7.385 -5.2875 7.385 -7.8125 6.375 C-3.50480769 0.46730769 -3.50480769 0.46730769 0 0 Z " fill="#114356" transform="translate(216.8125,156.625)"/>
<path d="M0 0 C3.73867071 3.12827549 7.43269846 6.30173921 11 9.625 C11.598125 10.17414063 12.19625 10.72328125 12.8125 11.2890625 C14 13 14 13 13.81640625 15.1015625 C12.74462071 17.5938485 11.24643351 18.55068806 9 20 C9.33 18.35 9.66 16.7 10 15 C10.66 15 11.32 15 12 15 C7.20497249 9.40032622 7.20497249 9.40032622 2.0625 4.125 C0 2 0 2 0 0 Z " fill="#2886CF" transform="translate(400,231)"/>
<path d="M0 0 C0.33 0.99 0.66 1.98 1 3 C1.66 3 2.32 3 3 3 C2.88658509 5.48020497 2.75985314 7.95844969 2.625 10.4375 C2.5940625 11.14455078 2.563125 11.85160156 2.53125 12.58007812 C2.42719371 14.39239188 2.22080108 16.19817988 2 18 C1.34 18.33 0.68 18.66 0 19 C-0.1938211 16.02111874 -0.38035102 13.04209754 -0.5625 10.0625 C-0.61857422 9.21236328 -0.67464844 8.36222656 -0.73242188 7.48632812 C-0.80493164 6.27299805 -0.80493164 6.27299805 -0.87890625 5.03515625 C-0.9260376 4.2862915 -0.97316895 3.53742676 -1.02172852 2.76586914 C-1 1 -1 1 0 0 Z " fill="#094359" transform="translate(229,175)"/>
<path d="M0 0 C0.66 0.33 1.32 0.66 2 1 C2.99 1.33 3.98 1.66 5 2 C5.74513723 4.09993221 6 5.77431099 6 8 C6.33 8.66 6.66 9.32 7 10 C3.96147295 8.59023295 1.4060405 6.91129772 -1.25 4.875 C-1.95640625 4.33617187 -2.6628125 3.79734375 -3.390625 3.2421875 C-3.92171875 2.83226562 -4.4528125 2.42234375 -5 2 C-4.360625 1.855625 -3.72125 1.71125 -3.0625 1.5625 C-1.02454854 1.18992819 -1.02454854 1.18992819 0 0 Z " fill="#CDE8E5" transform="translate(201,152)"/>
<path d="M0 0 C1.65 0.33 3.3 0.66 5 1 C3.33333333 2.66666667 1.66666667 4.33333333 0 6 C-0.886875 6.928125 -1.77375 7.85625 -2.6875 8.8125 C-5 11 -5 11 -7 11 C-7 9.68 -7 8.36 -7 7 C-5.68 7 -4.36 7 -3 7 C-3.33 5.02 -3.66 3.04 -4 1 C-2.68 1.33 -1.36 1.66 0 2 C0 1.34 0 0.68 0 0 Z " fill="#CEE4E8" transform="translate(292,148)"/>
<path d="M0 0 C0.99 0 1.98 0 3 0 C2.43040847 3.62613199 1.07625466 5.25517741 -1.5625 7.75 C-2.52349609 8.67039063 -2.52349609 8.67039063 -3.50390625 9.609375 C-3.99761719 10.06828125 -4.49132812 10.5271875 -5 11 C-5.66 10.67 -6.32 10.34 -7 10 C-7 9.34 -7 8.68 -7 8 C-6.34 8 -5.68 8 -5 8 C-4.67 6.35 -4.34 4.7 -4 3 C-3.01 2.67 -2.02 2.34 -1 2 C-0.67 1.34 -0.34 0.68 0 0 Z " fill="#CFD9D2" transform="translate(116,197)"/>
<path d="M0 0 C2.31 0.33 4.62 0.66 7 1 C5.02 3.31 3.04 5.62 1 8 C-3 6 -3 6 -4 4 C-3.34 4 -2.68 4 -2 4 C-1.34 2.68 -0.68 1.36 0 0 Z " fill="#D5E0D8" transform="translate(209,154)"/>
<path d="M0 0 C4.43458973 1.3937282 6.87378374 3.60582235 10 7 C8.35 6.67 6.7 6.34 5 6 C5 5.34 5 4.68 5 4 C2.05908413 4.18415432 2.05908413 4.18415432 -1 5 C-2.43637698 6.95163118 -2.43637698 6.95163118 -3 9 C-3.66 9 -4.32 9 -5 9 C-3.50163895 5.88801935 -1.80066242 2.9465385 0 0 Z " fill="#2FA9D0" transform="translate(178,141)"/>
<path d="M0 0 C0.99 0.99 1.98 1.98 3 3 C1.36587557 4.70840281 0.13093906 5.93453047 -2 7 C-3.03145371 8.30915279 -4.03542166 9.64082143 -5 11 C-6.32 10.34 -7.64 9.68 -9 9 C-6.03 6.03 -3.06 3.06 0 0 Z " fill="#1A4B58" transform="translate(100,217)"/>
<path d="M0 0 C0.33 0.66 0.66 1.32 1 2 C-0.1875 5.5625 -0.1875 5.5625 -2 9 C-4.0625 9.6875 -4.0625 9.6875 -6 10 C-7.18330183 11.86644906 -7.18330183 11.86644906 -8 14 C-8.99 15.485 -8.99 15.485 -10 17 C-10.66 16.67 -11.32 16.34 -12 16 C-8.04 10.72 -4.08 5.44 0 0 Z " fill="#24A0C8" transform="translate(133,203)"/>
<path d="M0 0 C0 4.22006645 -2.35230646 6.40392089 -4.875 9.5625 C-5.56529297 10.44711914 -5.56529297 10.44711914 -6.26953125 11.34960938 C-8.09374708 13.67350171 -9.90931705 15.90931705 -12 18 C-10.83922898 9.87460288 -5.68964414 5.44638144 0 0 Z " fill="#185267" transform="translate(175,144)"/>
<path d="M0 0 C0 2.83967231 -0.40267181 5.23735711 -1 8 C-2.98 8.33 -4.96 8.66 -7 9 C-7 9.66 -7 10.32 -7 11 C-8.32 10.67 -9.64 10.34 -11 10 C-5.555 5.05 -5.555 5.05 0 0 Z " fill="#CEE4EA" transform="translate(412,248)"/>
<path d="M0 0 C3.54875053 -0.19715281 6.09557968 -0.17831524 9 2 C9.6875 4.3125 9.6875 4.3125 10 7 C10.185625 7.928125 10.37125 8.85625 10.5625 9.8125 C10.7790625 10.8953125 10.7790625 10.8953125 11 12 C7.08060535 8.19588166 3.50897269 4.18423892 0 0 Z " fill="#D2E6E7" transform="translate(389,218)"/>
<path d="M0 0 C0.99 0.33 1.98 0.66 3 1 C2.731875 1.721875 2.46375 2.44375 2.1875 3.1875 C1.65105845 6.26390537 1.65105845 6.26390537 4.4375 8.8125 C5.283125 9.534375 6.12875 10.25625 7 11 C3.96147295 9.59023295 1.4060405 7.91129772 -1.25 5.875 C-1.95640625 5.33617187 -2.6628125 4.79734375 -3.390625 4.2421875 C-3.92171875 3.83226562 -4.4528125 3.42234375 -5 3 C-4.360625 2.690625 -3.72125 2.38125 -3.0625 2.0625 C-1.06389179 1.1654837 -1.06389179 1.1654837 0 0 Z " fill="#28B0DA" transform="translate(104,266)"/>
<path d="M0 0 C0 3.83020303 -0.96689438 6.79610597 -3 10 C-5.22205448 11.98009744 -7.45690015 13.41656047 -10 15 C-8.59601721 10.89889238 -6.62912962 8.01910841 -3.875 4.6875 C-3.15054688 3.80449219 -2.42609375 2.92148438 -1.6796875 2.01171875 C-1.12539062 1.34785156 -0.57109375 0.68398437 0 0 Z " fill="#23A3CF" transform="translate(111,233)"/>
<path d="M0 0 C3.80133442 1.67923025 6.97082702 4.11462834 10.25 6.625 C10.80429688 7.04523438 11.35859375 7.46546875 11.9296875 7.8984375 C13.28866663 8.92938719 14.64463835 9.96429911 16 11 C13.50907189 12.24546405 12.58919267 11.7767578 10 11 C10 10.01 10 9.02 10 8 C8.68 7.67 7.36 7.34 6 7 C6 6.34 6 5.68 6 5 C5.01 5 4.02 5 3 5 C3 4.34 3 3.68 3 3 C2.01 3 1.02 3 0 3 C0 2.01 0 1.02 0 0 Z " fill="#C4E9EC" transform="translate(166,320)"/>
<path d="M0 0 C3.71304183 3.3116319 5.88899839 6.9477304 8.25 11.25 C8.61351562 11.8996875 8.97703125 12.549375 9.3515625 13.21875 C10.24033459 14.80918426 11.12099936 16.40414448 12 18 C9.59765625 17.19921875 9.59765625 17.19921875 7 16 C5.4375 12.8125 5.4375 12.8125 4.7578125 10.9453125 C3.95360597 8.88090604 2.94903966 7.08703132 1.8125 5.1875 C0 2 0 2 0 0 Z " fill="#4DCFDD" transform="translate(260,294)"/>
<path d="M0 0 C0.33 0.99 0.66 1.98 1 3 C1.99 3.33 2.98 3.66 4 4 C3.01 4.33 2.02 4.66 1 5 C0.67 5.66 0.34 6.32 0 7 C-0.99 7 -1.98 7 -3 7 C-3.33 7.99 -3.66 8.98 -4 10 C-8 10 -8 10 -9.75 8.5 C-10.1625 8.005 -10.575 7.51 -11 7 C-10.67 6.34 -10.34 5.68 -10 5 C-8.35 5.99 -6.7 6.98 -5 8 C-3.35 5.36 -1.7 2.72 0 0 Z " fill="#C1E9F0" transform="translate(201,333)"/>
<path d="M0 0 C2.375 0.75 2.375 0.75 5 2 C5.66666667 3.33333333 6.33333333 4.66666667 7 6 C10.03201925 8.24407254 10.03201925 8.24407254 13 10 C12.67 11.32 12.34 12.64 12 14 C7.40312076 9.64157559 3.54058858 5.25723759 0 0 Z " fill="#1982D1" transform="translate(255,265)"/>
<path d="M0 0 C0.33 0.66 0.66 1.32 1 2 C-0.32 3.65 -1.64 5.3 -3 7 C-1.68 7.33 -0.36 7.66 1 8 C0.01 9.485 0.01 9.485 -1 11 C-3.625 11.1875 -3.625 11.1875 -6 11 C-5.55530671 5.96014269 -3.28656638 3.62365012 0 0 Z " fill="#015373" transform="translate(201,170)"/>
<path d="M0 0 C0.33 0.99 0.66 1.98 1 3 C-2.14594657 7.671254 -4.3616163 9.68874798 -10 11 C-6.79239749 7.19364503 -3.59253891 3.45436433 0 0 Z " fill="#2A5661" transform="translate(147,171)"/>
<path d="M0 0 C0.7425 0.2475 1.485 0.495 2.25 0.75 C-0.60276137 3.68200474 -3.40079784 6.39315404 -6.75 8.75 C-7.11554789 5.46006898 -7.01218503 4.11900115 -5.0625 1.375 C-2.75 -0.25 -2.75 -0.25 0 0 Z " fill="#2289DE" transform="translate(406.75,250.25)"/>
<path d="M0 0 C0.99 0 1.98 0 3 0 C3.33 2.64 3.66 5.28 4 8 C3.01 8.66 2.02 9.32 1 10 C1 9.34 1 8.68 1 8 C0.34 8 -0.32 8 -1 8 C-0.67 5.36 -0.34 2.72 0 0 Z " fill="#0B4E65" transform="translate(202,247)"/>
<path d="M0 0 C3.34489996 0.59730356 5.57917355 1.57917355 8 4 C8.25 6.6875 8.25 6.6875 8 9 C3.96189555 7.65396518 2.52704924 5.34663277 0 2 C0 1.34 0 0.68 0 0 Z " fill="#0A4456" transform="translate(234,247)"/>
<path d="M0 0 C1.32 0.33 2.64 0.66 4 1 C4 1.66 4 2.32 4 3 C3.01 3 2.02 3 1 3 C1 3.66 1 4.32 1 5 C1.99 5 2.98 5 4 5 C4.33 6.32 4.66 7.64 5 9 C3.35 9.66 1.7 10.32 0 11 C0 7.37 0 3.74 0 0 Z " fill="#DFE7DF" transform="translate(265,159)"/>
<path d="M0 0 C0.99 0.33 1.98 0.66 3 1 C1.35718838 2.66964521 -0.28932761 4.3356464 -1.9375 6 C-2.85402344 6.928125 -3.77054688 7.85625 -4.71484375 8.8125 C-7 11 -7 11 -8 11 C-8 9.35 -8 7.7 -8 6 C-7.05125 5.7525 -6.1025 5.505 -5.125 5.25 C-1.91306809 4.3142923 -1.91306809 4.3142923 -0.625 1.875 C-0.41875 1.25625 -0.2125 0.6375 0 0 Z " fill="#C4D7D4" transform="translate(157,159)"/>
<path d="M0 0 C0.66 0 1.32 0 2 0 C2 1.65 2 3.3 2 5 C2.99 4.34 3.98 3.68 5 3 C3.50902342 6.7952131 1.24299151 8.61042731 -2 11 C-1.85957123 9.35369672 -1.71250671 7.70795821 -1.5625 6.0625 C-1.48128906 5.14597656 -1.40007812 4.22945312 -1.31640625 3.28515625 C-1 1 -1 1 0 0 Z " fill="#46DAF6" transform="translate(237,192)"/>
<path d="M0 0 C5.875 4.625 5.875 4.625 7 8 C4.36 7.67 1.72 7.34 -1 7 C-1.33 6.01 -1.66 5.02 -2 4 C-1.34 4 -0.68 4 0 4 C0 2.68 0 1.36 0 0 Z " fill="#278BE1" transform="translate(364,192)"/>
<path d="M0 0 C2.12966005 2.12966005 2.47624662 3.04068204 3.1875 5.875 C3.36667969 6.55304688 3.54585937 7.23109375 3.73046875 7.9296875 C4.25282359 11.94197833 2.80587349 14.38825302 1 18 C0.67 12.06 0.34 6.12 0 0 Z " fill="#056D8C" transform="translate(192,201)"/>
<path d="M0 0 C2.7425957 2.7425957 3.50207198 3.74411385 4.6875 7.1875 C4.93886719 7.90292969 5.19023437 8.61835938 5.44921875 9.35546875 C5.63097656 9.89816406 5.81273437 10.44085938 6 11 C4.35 11 2.7 11 1 11 C0.67 7.37 0.34 3.74 0 0 Z " fill="#3CA8CB" transform="translate(232,178)"/>
<path d="M0 0 C0.99 0.33 1.98 0.66 3 1 C2.125 7.75 2.125 7.75 1 10 C0.01 9.67 -0.98 9.34 -2 9 C-2 7.68 -2 6.36 -2 5 C-1.34 4.67 -0.68 4.34 0 4 C0 2.68 0 1.36 0 0 Z " fill="#1085DC" transform="translate(299,172)"/>
<path d="M0 0 C1.34444159 0.90029571 2.67531438 1.82088022 4 2.75 C5.11375 3.51570312 5.11375 3.51570312 6.25 4.296875 C6.8275 4.85890625 7.405 5.4209375 8 6 C8 7.32 8 8.64 8 10 C7.01 10.495 7.01 10.495 6 11 C4.9944239 9.54550599 3.99569565 8.08627557 3 6.625 C2.443125 5.81289062 1.88625 5.00078125 1.3125 4.1640625 C0 2 0 2 0 0 Z " fill="#BCD7DA" transform="translate(272,155)"/>
<path d="M0 0 C0 2.66666667 0 5.33333333 0 8 C0.99 8 1.98 8 3 8 C2.67 9.32 2.34 10.64 2 12 C-0.31 10.02 -2.62 8.04 -5 6 C-3.35 4.02 -1.7 2.04 0 0 Z " fill="#1C84D8" transform="translate(291,154)"/>
<path d="M0 0 C0.99 0.33 1.98 0.66 3 1 C1.6875 4.4375 1.6875 4.4375 0 8 C-0.99 8.33 -1.98 8.66 -3 9 C-3.75 6.75 -3.75 6.75 -4 4 C-2.0625 1.6875 -2.0625 1.6875 0 0 Z " fill="#184554" transform="translate(85,232)"/>
<path d="M0 0 C0.99 0.66 1.98 1.32 3 2 C3 3.32 3 4.64 3 6 C3.99 6 4.98 6 6 6 C5.67 7.32 5.34 8.64 5 10 C4.60167969 9.59007812 4.20335937 9.18015625 3.79296875 8.7578125 C3.26316406 8.21898437 2.73335938 7.68015625 2.1875 7.125 C1.66542969 6.59132812 1.14335937 6.05765625 0.60546875 5.5078125 C-1.13259904 3.79223439 -1.13259904 3.79223439 -4 2 C-2.68 1.34 -1.36 0.68 0 0 Z " fill="#08445D" transform="translate(285,159)"/>
<path d="M0 0 C1.65 0 3.3 0 5 0 C4.67 1.32 4.34 2.64 4 4 C4.99 3.67 5.98 3.34 7 3 C8.0625 4.8125 8.0625 4.8125 9 7 C8.67 7.99 8.34 8.98 8 10 C6.66370254 8.52351062 5.33103329 7.0437367 4 5.5625 C3.2575 4.73878906 2.515 3.91507813 1.75 3.06640625 C0 1 0 1 0 0 Z " fill="#CCE5EC" transform="translate(335,160)"/>
<path d="M0 0 C1.32 0.33 2.64 0.66 4 1 C3.44449305 4.59905908 2.25112752 5.99909799 -0.5625 8.25 C-1.20316406 8.77078125 -1.84382812 9.2915625 -2.50390625 9.828125 C-2.99761719 10.21484375 -3.49132812 10.6015625 -4 11 C-3.67 9.35 -3.34 7.7 -3 6 C-2.01 6 -1.02 6 0 6 C0 4.02 0 2.04 0 0 Z " fill="#D4E1DD" transform="translate(164,148)"/>
<path d="M0 0 C4.56048012 3.61251516 8.01665146 6.98797445 11 12 C7.125 10.25 7.125 10.25 6 8 C5.01 8 4.02 8 3 8 C3 6.68 3 5.36 3 4 C2.01 4 1.02 4 0 4 C0 2.68 0 1.36 0 0 Z " fill="#034E78" transform="translate(288,161)"/>
<path d="M0 0 C2.91796875 -0.390625 2.91796875 -0.390625 6.1875 -0.25 C7.27417969 -0.21390625 8.36085938 -0.1778125 9.48046875 -0.140625 C10.31191406 -0.09421875 11.14335937 -0.0478125 12 0 C12 0.33 12 0.66 12 1 C4.575 2.485 4.575 2.485 -3 4 C-2.01 2.68 -1.02 1.36 0 0 Z " fill="#5BD3EA" transform="translate(332,317)"/>
<path d="M0 0 C3.51098025 4.01254885 5.76537994 8.20983041 8 13 C7.34 13 6.68 13 6 13 C6 12.34 6 11.68 6 11 C5.34 11 4.68 11 4 11 C3.67 11.66 3.34 12.32 3 13 C1.90154282 8.67940177 0.82187261 4.38332057 0 0 Z " fill="#4CD0E3" transform="translate(240,261)"/>
<path d="M0 0 C0.66 0 1.32 0 2 0 C2.66 0.66 3.32 1.32 4 2 C5.31747324 2.69748583 6.64914193 3.36959957 8 4 C7.67 6.31 7.34 8.62 7 11 C4.23455278 7.54319097 2.15078722 3.85658398 0 0 Z " fill="#1282D9" transform="translate(253,201)"/>
<path d="M0 0 C1.98 1.65 3.96 3.3 6 5 C5.34 5.66 4.68 6.32 4 7 C3.53837573 9.43252661 3.53837573 9.43252661 3.375 12.125 C3.30023438 13.03507813 3.22546875 13.94515625 3.1484375 14.8828125 C3.09945313 15.58148438 3.05046875 16.28015625 3 17 C2.67 17 2.34 17 2 17 C1.93941406 16.19175781 1.87882812 15.38351563 1.81640625 14.55078125 C1.73261719 13.48214844 1.64882813 12.41351563 1.5625 11.3125 C1.48128906 10.25675781 1.40007812 9.20101562 1.31640625 8.11328125 C1.03548319 5.34913703 0.59843148 2.71054259 0 0 Z " fill="#A1BEBF" transform="translate(262,153)"/>
<path d="M0 0 C1.60031344 3.20062687 0.03173691 5.72271806 -1 9 C-1.66 8.67 -2.32 8.34 -3 8 C-3.625 5.9375 -3.625 5.9375 -4 4 C-4.33 5.32 -4.66 6.64 -5 8 C-5 7.34 -5 6.68 -5 6 C-5.99 5.67 -6.98 5.34 -8 5 C-4.04 2.525 -4.04 2.525 0 0 Z " fill="#C8DAD8" transform="translate(231,151)"/>
<path d="M0 0 C-5.1468192 3.16727335 -9.158256 3.35050464 -15 3 C-12.41464321 1.27642881 -10.96188386 0.55264982 -8.0625 -0.1875 C-7.39347656 -0.36667969 -6.72445312 -0.54585938 -6.03515625 -0.73046875 C-3.75319112 -1.03268678 -2.17973341 -0.68756692 0 0 Z " fill="#C6EDE8" transform="translate(262,338)"/>
<path d="M0 0 C1.13199353 0.9080162 2.25532363 1.82683826 3.375 2.75 C4.00148438 3.26046875 4.62796875 3.7709375 5.2734375 4.296875 C7.08312318 6.08199481 8.00117455 7.67949644 9 10 C8.01 9.67 7.02 9.34 6 9 C6 8.34 6 7.68 6 7 C4.35 7.33 2.7 7.66 1 8 C1.020625 7.236875 1.04125 6.47375 1.0625 5.6875 C1.12942841 2.89814214 1.12942841 2.89814214 0 0 Z " fill="#2888D5" transform="translate(391,221)"/>
<path d="M0 0 C1.485 0.99 1.485 0.99 3 2 C3.40843923 4.71203652 3.13336867 7.2437142 3 10 C2.34 9.67 1.68 9.34 1 9 C1 8.01 1 7.02 1 6 C0.34 6 -0.32 6 -1 6 C-1.042721 4.33388095 -1.04063832 2.66617115 -1 1 C-0.67 0.67 -0.34 0.34 0 0 Z " fill="#0A4359" transform="translate(259,151)"/>
<path d="M0 0 C4.2742558 1.5830577 6.26531794 4.50568404 9 8 C6.03 7.505 6.03 7.505 3 7 C2.896875 6.38125 2.79375 5.7625 2.6875 5.125 C2.12474627 2.63473516 2.12474627 2.63473516 -1 1 C-0.67 0.67 -0.34 0.34 0 0 Z " fill="#2F8CDC" transform="translate(311,137)"/>
<path d="M0 0 C0.66 0.33 1.32 0.66 2 1 C2 1.66 2 2.32 2 3 C1.34 3 0.68 3 0 3 C0.99 4.32 1.98 5.64 3 7 C2.67 7.66 2.34 8.32 2 9 C-0.31 7.02 -2.62 5.04 -5 3 C-2 1 -2 1 0 0 Z " fill="#26AFDC" transform="translate(169,315)"/>
<path d="M0 0 C3.87590782 1.84126641 6.88033217 4.01898408 10 7 C10.875 9.8125 10.875 9.8125 11 12 C7.08060535 8.19588166 3.50897269 4.18423892 0 0 Z " fill="#1981CA" transform="translate(294,309)"/>
<path d="M0 0 C4.875 1.875 4.875 1.875 6 3 C6.04092937 5.33297433 6.04241723 7.66705225 6 10 C3.25722422 6.80009492 1.3697164 3.99500618 0 0 Z " fill="#065066" transform="translate(255,284)"/>
<path d="M0 0 C4.83540096 2.61111652 8.87103901 5.37457083 13 9 C12.01 9.495 12.01 9.495 11 10 C7.26415094 8.52830189 7.26415094 8.52830189 6 6 C5.01 5.67 4.02 5.34 3 5 C1.3125 3.5625 1.3125 3.5625 0 2 C0 1.34 0 0.68 0 0 Z " fill="#C2E8EF" transform="translate(100,270)"/>
<path d="M0 0 C4.52615993 3.67832017 8.39424999 7.41086363 12 12 C9 12 9 12 7.24609375 10.390625 C6.64925781 9.68421875 6.05242187 8.9778125 5.4375 8.25 C4.83808594 7.55390625 4.23867188 6.8578125 3.62109375 6.140625 C2.11754827 4.15522037 1.02421999 2.2624561 0 0 Z " fill="#368CD0" transform="translate(375,204)"/>
<path d="M0 0 C0.33 0 0.66 0 1 0 C1.33 2.97 1.66 5.94 2 9 C1.01 9.33 0.02 9.66 -1 10 C-1.33 10.99 -1.66 11.98 -2 13 C-3.18414294 9.44757118 -2.69535532 8.30169438 -1.5625 4.8125 C-1.27503906 3.91144531 -0.98757813 3.01039063 -0.69140625 2.08203125 C-0.46324219 1.39496094 -0.23507812 0.70789063 0 0 Z " fill="#285562" transform="translate(258,171)"/>
<path d="M0 0 C0.66 0.66 1.32 1.32 2 2 C0.35 4.31 -1.3 6.62 -3 9 C-3.99 8.01 -4.98 7.02 -6 6 C-5.01 6 -4.02 6 -3 6 C-3 4.35 -3 2.7 -3 1 C-2.01 0.67 -1.02 0.34 0 0 Z " fill="#35AED7" transform="translate(199,333)"/>
<path d="M0 0 C0.625 3.0625 0.625 3.0625 1 6 C-2.36591866 4.55746343 -4.51047079 2.66735273 -7 0 C-2.25 -1.125 -2.25 -1.125 0 0 Z " fill="#24ADDA" transform="translate(126,283)"/>
<path d="M0 0 C0.98120464 3.05263664 0.98120464 4.94736336 0 8 C-1.32 8.33 -2.64 8.66 -4 9 C-3.46930939 5.17902761 -2.50298434 2.93828597 0 0 Z " fill="#1EA8D9" transform="translate(100,248)"/>
<path d="M0 0 C2.375 0.3125 2.375 0.3125 5 1 C5.66 1.99 6.32 2.98 7 4 C6.67 4.99 6.34 5.98 6 7 C3.00675737 5.9024777 2.15389099 5.32317108 0.75 2.375 C0.5025 1.59125 0.255 0.8075 0 0 Z " fill="#1281C7" transform="translate(217,223)"/>
<path d="M0 0 C0.99 0.33 1.98 0.66 3 1 C2.319375 2.0828125 2.319375 2.0828125 1.625 3.1875 C0.14505642 5.74894081 -0.97217539 8.23277989 -2 11 C-2.33 11 -2.66 11 -3 11 C-2.88590407 9.54077307 -2.75834456 8.08259402 -2.625 6.625 C-2.55539063 5.81289062 -2.48578125 5.00078125 -2.4140625 4.1640625 C-2 2 -2 2 0 0 Z " fill="#1CA9DB" transform="translate(197,170)"/>
<path d="M0 0 C2.30163882 3.45245824 2.34490322 4.94738713 2 9 C1.34 9.66 0.68 10.32 0 11 C-2 8 -2 8 -1.6875 4.9375 C-1 2 -1 2 0 0 Z " fill="#18495A" transform="translate(262,165)"/>
<path d="M0 0 C0.99 0.99 1.98 1.98 3 3 C2.01 3 1.02 3 0 3 C0 4.98 0 6.96 0 9 C-0.99 8.67 -1.98 8.34 -3 8 C-3 7.34 -3 6.68 -3 6 C-3.66 5.67 -4.32 5.34 -5 5 C-4.34 4.01 -3.68 3.02 -3 2 C-2.34 2 -1.68 2 -1 2 C-0.67 1.34 -0.34 0.68 0 0 Z " fill="#1D82C9" transform="translate(281,162)"/>
<path d="M0 0 C4 2 4 2 5.5 3.5625 C7.27460185 5.26316011 8.61006256 5.58794182 11 6 C8.525 7.485 8.525 7.485 6 9 C4.02 6.03 2.04 3.06 0 0 Z " fill="#2986CA" transform="translate(308,324)"/>
<path d="M0 0 C3 1 3 1 3.94921875 2.84765625 C4.19285156 3.57855469 4.43648438 4.30945313 4.6875 5.0625 C4.93886719 5.79597656 5.19023437 6.52945312 5.44921875 7.28515625 C5.63097656 7.85105469 5.81273437 8.41695313 6 9 C5.01 9.495 5.01 9.495 4 10 C2.35 7.03 0.7 4.06 -1 1 C-0.67 0.67 -0.34 0.34 0 0 Z " fill="#055367" transform="translate(266,300)"/>
<path d="M0 0 C0 0.66 0 1.32 0 2 C-3 4 -3 4 -5.6875 3.625 C-6.450625 3.41875 -7.21375 3.2125 -8 3 C-8 2.34 -8 1.68 -8 1 C-5.29120665 -0.35439668 -2.99066732 -0.06501451 0 0 Z " fill="#E6E5D9" transform="translate(223,164)"/>
<path d="M0 0 C2.39073445 3.82517513 2.55966552 7.59665524 3 12 C0 10 0 10 -0.75 7.125 C-0.97200751 4.34990614 -0.89796012 2.59410701 0 0 Z " fill="#0C5872" transform="translate(211,275)"/>
<path d="M0 0 C3.26008643 3.16952847 6.22237877 6.39937989 9 10 C6.69 9.34 4.38 8.68 2 8 C1.34 5.36 0.68 2.72 0 0 Z " fill="#044D72" transform="translate(258,269)"/>
<path d="M0 0 C0.99 0.33 1.98 0.66 3 1 C2.02471263 2.33617352 1.04466681 3.6688751 0.0625 5 C-0.48277344 5.7425 -1.02804688 6.485 -1.58984375 7.25 C-2.28787109 8.11625 -2.28787109 8.11625 -3 9 C-3.33 9 -3.66 9 -4 9 C-4 7.35 -4 5.7 -4 4 C-3.34 4 -2.68 4 -2 4 C-1.34 2.68 -0.68 1.36 0 0 Z " fill="#034961" transform="translate(119,218)"/>
<path d="M0 0 C-2.97 2.475 -2.97 2.475 -6 5 C-6.66 4.67 -7.32 4.34 -8 4 C-8 3.01 -8 2.02 -8 1 C-2.25 -1.125 -2.25 -1.125 0 0 Z " fill="#43DAF7" transform="translate(254,187)"/>
<path d="M0 0 C3.98069267 2.87494471 6.43571997 5.82117329 9 10 C7.68 10 6.36 10 5 10 C4.67 8.35 4.34 6.7 4 5 C3.01 4.67 2.02 4.34 1 4 C0.3125 1.9375 0.3125 1.9375 0 0 Z " fill="#2F8BD4" transform="translate(348,175)"/>
<path d="M0 0 C0 3 0 3 -1.53125 4.60546875 C-2.1809375 5.12753906 -2.830625 5.64960938 -3.5 6.1875 C-4.1496875 6.71730469 -4.799375 7.24710938 -5.46875 7.79296875 C-5.9740625 8.19128906 -6.479375 8.58960938 -7 9 C-7.66 8.67 -8.32 8.34 -9 8 C-8.34 6.68 -7.68 5.36 -7 4 C-6.01 4 -5.02 4 -4 4 C-1.81222534 2.0624994 -1.81222534 2.0624994 0 0 Z " fill="#4192D1" transform="translate(270,172)"/>
<path d="M0 0 C3.53372712 1.96318174 6.24479785 4.04070881 9 7 C5.64708882 7.37254569 4.3961577 7.31050198 1.6875 5.1875 C0 3 0 3 0 0 Z " fill="#28ADD9" transform="translate(188,148)"/>
<path d="M0 0 C1.21236328 0.04060547 1.21236328 0.04060547 2.44921875 0.08203125 C3.06410156 0.11683594 3.67898438 0.15164063 4.3125 0.1875 C3.9825 0.8475 3.6525 1.5075 3.3125 2.1875 C0.80859375 2.6015625 0.80859375 2.6015625 -2.25 2.8125 C-3.26191406 2.88726562 -4.27382813 2.96203125 -5.31640625 3.0390625 C-6.09886719 3.08804687 -6.88132812 3.13703125 -7.6875 3.1875 C-5.26849268 0.20484049 -3.789448 -0.16475861 0 0 Z " fill="#15424E" transform="translate(303.6875,331.8125)"/>
<path d="M0 0 C0.66 0 1.32 0 2 0 C2.98248524 4.0527516 3.08159574 7.83861737 3 12 C0.97649676 8.96474514 0.67875982 7.80573798 0.375 4.3125 C0.30023438 3.50425781 0.22546875 2.69601562 0.1484375 1.86328125 C0.09945313 1.24839844 0.05046875 0.63351562 0 0 Z " fill="#C9E8ED" transform="translate(354,298)"/>
<path d="M0 0 C2.375 0.625 2.375 0.625 5 2 C6.3125 5.125 6.3125 5.125 7 8 C6.01 8.495 6.01 8.495 5 9 C3.35 6.03 1.7 3.06 0 0 Z " fill="#045369" transform="translate(234,251)"/>
<path d="M0 0 C1.75 0.125 1.75 0.125 4 1 C6.25 4.0625 6.25 4.0625 8 7 C7.67 7.66 7.34 8.32 7 9 C5.83037314 7.69013727 4.66437056 6.3770374 3.5 5.0625 C2.8503125 4.33160156 2.200625 3.60070312 1.53125 2.84765625 C0 1 0 1 0 0 Z " fill="#1781CB" transform="translate(232,239)"/>
<path d="M0 0 C1.98 0.66 3.96 1.32 6 2 C6.33 1.34 6.66 0.68 7 0 C7.33 1.32 7.66 2.64 8 4 C6.68 4.33 5.36 4.66 4 5 C2.68 3.35 1.36 1.7 0 0 Z " fill="#015182" transform="translate(251,208)"/>
<path d="M0 0 C1.32 0 2.64 0 4 0 C4.12375 0.969375 4.2475 1.93875 4.375 2.9375 C4.58125 3.948125 4.7875 4.95875 5 6 C5.66 6.33 6.32 6.66 7 7 C6.01 7 5.02 7 4 7 C2.02 3.535 2.02 3.535 0 0 Z " fill="#0F83D6" transform="translate(247,193)"/>
<path d="M0 0 C2.31 1.98 4.62 3.96 7 6 C6.67 6.66 6.34 7.32 6 8 C5.34 8 4.68 8 4 8 C4 7.34 4 6.68 4 6 C3.01 6 2.02 6 1 6 C0.67 4.02 0.34 2.04 0 0 Z " fill="#3590D8" transform="translate(331,157)"/>
<path d="M0 0 C1.32 0 2.64 0 4 0 C3.67 1.98 3.34 3.96 3 6 C0.69 5.34 -1.62 4.68 -4 4 C-2.68 3.67 -1.36 3.34 0 3 C0 2.01 0 1.02 0 0 Z " fill="#074356" transform="translate(252,143)"/>
<path d="M0 0 C0.86625 0.3403125 0.86625 0.3403125 1.75 0.6875 C0.43 2.0075 -0.89 3.3275 -2.25 4.6875 C-3.57 4.0275 -4.89 3.3675 -6.25 2.6875 C-2.80384615 -0.38942308 -2.80384615 -0.38942308 0 0 Z " fill="#198AE3" transform="translate(311.25,139.3125)"/>
<path d="M0 0 C3.36591866 1.44253657 5.51047079 3.33264727 8 6 C5.69 5.67 3.38 5.34 1 5 C0.67 3.35 0.34 1.7 0 0 Z " fill="#C6E8EA" transform="translate(154,311)"/>
<path d="M0 0 C4.69230769 1.48178138 4.69230769 1.48178138 6.1875 4 C6.455625 4.66 6.72375 5.32 7 6 C7.66 6.66 8.32 7.32 9 8 C6 8 6 8 4.39453125 6.50390625 C3.61142578 5.54291016 3.61142578 5.54291016 2.8125 4.5625 C2.28269531 3.92441406 1.75289062 3.28632813 1.20703125 2.62890625 C0 1 0 1 0 0 Z " fill="#177EC4" transform="translate(247,256)"/>
<path d="M0 0 C2.18975773 3.28463659 2.99806563 6.20696275 4 10 C3.34 10.66 2.68 11.32 2 12 C0.70756464 7.8803623 -0.26252625 4.33168317 0 0 Z " fill="#C4D8D7" transform="translate(82,241)"/>
<path d="M0 0 C-0.33 1.32 -0.66 2.64 -1 4 C-2.32 4 -3.64 4 -5 4 C-4.67 4.99 -4.34 5.98 -4 7 C-4.99 6.67 -5.98 6.34 -7 6 C-5.52522876 2.59668175 -4.14385429 0 0 0 Z " fill="#0E92DF" transform="translate(222,216)"/>
<path d="M0 0 C1.32 0 2.64 0 4 0 C4 0.66 4 1.32 4 2 C4.66 2 5.32 2 6 2 C6.66 3.98 7.32 5.96 8 8 C6.85073734 7.04578192 5.70569459 6.08647955 4.5625 5.125 C3.92441406 4.59132812 3.28632813 4.05765625 2.62890625 3.5078125 C1 2 1 2 0 0 Z " fill="#CCEAF2" transform="translate(344,170)"/>
<path d="M0 0 C-3.83325617 2.70582788 -6.32538149 3.32613618 -11 3 C-7.18178484 -0.02823961 -4.81391924 -1.49397494 0 0 Z " fill="#295361" transform="translate(240,144)"/>
<path d="M0 0 C2.31 0.33 4.62 0.66 7 1 C7.33 2.65 7.66 4.3 8 6 C4.63408134 4.55746343 2.48952921 2.66735273 0 0 Z " fill="#33B0D8" transform="translate(173,324)"/>
<path d="M0 0 C0.99 0.33 1.98 0.66 3 1 C2.34 1.5775 1.68 2.155 1 2.75 C-1.44290923 4.99653977 -1.44290923 4.99653977 -1 9 C-1.66 9 -2.32 9 -3 9 C-3.1875 5.625 -3.1875 5.625 -3 2 C-2.01 1.34 -1.02 0.68 0 0 Z " fill="#C9DAD7" transform="translate(83,231)"/>
<path d="M0 0 C0.33 0.66 0.66 1.32 1 2 C0.06421005 4.35981813 -0.93347808 6.69631264 -2 9 C-2.66 8.67 -3.32 8.34 -4 8 C-3.40072174 4.64404172 -2.15377564 2.62198774 0 0 Z " fill="#21A5D3" transform="translate(133,203)"/>
<path d="M0 0 C2.49361571 1.20381448 4.68143083 2.45428722 7 4 C5.02 4.33 3.04 4.66 1 5 C0.34 3.68 -0.32 2.36 -1 1 C-0.67 0.67 -0.34 0.34 0 0 Z " fill="#E0E2D4" transform="translate(317,332)"/>
<path d="M0 0 C-2.06756277 2.7972908 -3.14440371 3.02692273 -6.6875 3.6875 C-7.780625 3.790625 -8.87375 3.89375 -10 4 C-7.16124653 -0.25813021 -4.8137938 -0.13010254 0 0 Z " fill="#C7EBEF" transform="translate(336,320)"/>
<path d="M0 0 C1.32 0.33 2.64 0.66 4 1 C0.535 3.97 0.535 3.97 -3 7 C-3 3.48283697 -2.17554415 2.62878252 0 0 Z " fill="#0C90DB" transform="translate(349,299)"/>
<path d="M0 0 C1.32 0 2.64 0 4 0 C7 5.625 7 5.625 7 9 C5.83037314 7.69013727 4.66437056 6.3770374 3.5 5.0625 C2.8503125 4.33160156 2.200625 3.60070312 1.53125 2.84765625 C0 1 0 1 0 0 Z " fill="#1A80C7" transform="translate(272,284)"/>
<path d="M0 0 C1.65 0 3.3 0 5 0 C5.625 1.875 5.625 1.875 6 4 C5.34 4.66 4.68 5.32 4 6 C0 1.125 0 1.125 0 0 Z " fill="#CBE2EB" transform="translate(384,212)"/>
<path d="M0 0 C0.33 0.99 0.66 1.98 1 3 C0.07421875 4.82421875 0.07421875 4.82421875 -1.3125 6.6875 C-1.76238281 7.31011719 -2.21226562 7.93273437 -2.67578125 8.57421875 C-3.11277344 9.04472656 -3.54976562 9.51523438 -4 10 C-4.66 10 -5.32 10 -6 10 C-4.34832443 6.4213696 -2.21713508 3.25179812 0 0 Z " fill="#249CC6" transform="translate(167,156)"/>
<path d="M0 0 C0.78375 0.04125 1.5675 0.0825 2.375 0.125 C-0.24014317 2.24538635 -2.82137616 4.25591744 -5.625 6.125 C-4.86443086 2.32215429 -4.27658992 0.20364714 0 0 Z " fill="#CEDCD7" transform="translate(223.625,147.875)"/>
<path d="M0 0 C1.75 0.125 1.75 0.125 4 1 C6.25 4.0625 6.25 4.0625 8 7 C7.67 7.66 7.34 8.32 7 9 C5.83037314 7.69013727 4.66437056 6.3770374 3.5 5.0625 C2.8503125 4.33160156 2.200625 3.60070312 1.53125 2.84765625 C0 1 0 1 0 0 Z " fill="#1880CD" transform="translate(286,300)"/>
<path d="M0 0 C2.475 0.495 2.475 0.495 5 1 C5.66 3.31 6.32 5.62 7 8 C4.35247996 5.42215154 2.05567935 3.08351902 0 0 Z " fill="#C7E1EE" transform="translate(393,222)"/>
<path d="M0 0 C0.66 0.33 1.32 0.66 2 1 C2 2.65 2 4.3 2 6 C0.02 4.68 -1.96 3.36 -4 2 C-2.125 0.9375 -2.125 0.9375 0 0 Z " fill="#CBE9E7" transform="translate(220,167)"/>
<path d="M0 0 C0.99 0.33 1.98 0.66 3 1 C0.525 4.465 0.525 4.465 -2 8 C-2.33 6.68 -2.66 5.36 -3 4 C-1.5625 1.75 -1.5625 1.75 0 0 Z " fill="#034F69" transform="translate(160,162)"/>
<path d="M0 0 C0.33 1.32 0.66 2.64 1 4 C-0.32 4.33 -1.64 4.66 -3 5 C-2.67 5.99 -2.34 6.98 -2 8 C-2.99 7.67 -3.98 7.34 -5 7 C-3.70700306 4.11562221 -2.34058637 2.12780579 0 0 Z " fill="#BBDAD9" transform="translate(218,160)"/>
<path d="M0 0 C1.32 0.66 2.64 1.32 4 2 C3.34 2 2.68 2 2 2 C1.71125 2.639375 1.4225 3.27875 1.125 3.9375 C0 6 0 6 -2 7 C-1.125 2.25 -1.125 2.25 0 0 Z " fill="#22A7CB" transform="translate(205,161)"/>
<path d="M0 0 C3.465 1.485 3.465 1.485 7 3 C6.01 3.99 5.02 4.98 4 6 C3.01 5.67 2.02 5.34 1 5 C0.67 3.35 0.34 1.7 0 0 Z " fill="#DCDACF" transform="translate(200,144)"/>
<path d="M0 0 C0.33 0.99 0.66 1.98 1 3 C1.99 3.33 2.98 3.66 4 4 C3.01 4.33 2.02 4.66 1 5 C0.67 5.66 0.34 6.32 0 7 C-0.66 7 -1.32 7 -2 7 C-1.125 2.25 -1.125 2.25 0 0 Z " fill="#C7E5E8" transform="translate(201,333)"/>
<path d="M0 0 C3.91402949 1.26941497 5.79072873 2.51167694 8 6 C7.67 6.66 7.34 7.32 7 8 C5.83035398 6.8572081 4.66435444 5.71068285 3.5 4.5625 C2.8503125 3.92441406 2.200625 3.28632813 1.53125 2.62890625 C0 1 0 1 0 0 Z " fill="#1B7EC4" transform="translate(224,231)"/>
<path d="M0 0 C0.66 0 1.32 0 2 0 C2.33 2.64 2.66 5.28 3 8 C2.01 7.34 1.02 6.68 0 6 C-0.1875 2.875 -0.1875 2.875 0 0 Z " fill="#08596E" transform="translate(195,215)"/>
<path d="M0 0 C0.99 0 1.98 0 3 0 C3.99 1.98 4.98 3.96 6 6 C5.01 6.33 4.02 6.66 3 7 C2.01 4.69 1.02 2.38 0 0 Z " fill="#094359" transform="translate(248,200)"/>
<path d="M0 0 C0.66 0.33 1.32 0.66 2 1 C2 1.99 2 2.98 2 4 C0.02 4.33 -1.96 4.66 -4 5 C-2.68 3.35 -1.36 1.7 0 0 Z " fill="#184958" transform="translate(133,185)"/>
</svg>
